M48
; DRILL file {KiCad 8.0.6} date 2024-12-10T22:17:22+0100
; FORMAT={-:-/ absolute / metric / decimal}
; #@! TF.CreationDate,2024-12-10T22:17:22+01:00
; #@! TF.GenerationSoftware,Kicad,Pcbnew,8.0.6
; #@! TF.FileFunction,Plated,1,2,PTH
FMAT,2
METRIC
; #@! TA.AperFunction,Plated,PTH,ViaDrill
T1C0.300
; #@! TA.AperFunction,Plated,PTH,ComponentDrill
T2C0.400
; #@! TA.AperFunction,Plated,PTH,ComponentDrill
T3C1.000
; #@! TA.AperFunction,Plated,PTH,ComponentDrill
T4C1.200
; #@! TA.AperFunction,Plated,PTH,ComponentDrill
T5C1.450
; #@! TA.AperFunction,Plated,PTH,ComponentDrill
T6C1.500
; #@! TA.AperFunction,Plated,PTH,ComponentDrill
T7C1.700
; #@! TA.AperFunction,Plated,PTH,ComponentDrill
T8C3.300
%
G90
G05
T1
X102.0Y-52.0
X102.0Y-54.0
X102.0Y-56.0
X102.0Y-58.0
X102.0Y-60.0
X102.0Y-62.0
X102.0Y-64.0
X102.0Y-66.0
X102.0Y-68.0
X102.0Y-70.0
X102.0Y-72.0
X102.0Y-74.0
X102.0Y-76.0
X102.0Y-78.0
X102.0Y-80.0
X102.0Y-82.0
X102.0Y-84.0
X102.0Y-86.0
X102.0Y-88.0
X102.0Y-90.0
X102.0Y-92.0
X102.0Y-94.0
X102.0Y-96.0
X102.0Y-98.0
X102.0Y-100.0
X102.0Y-102.0
X102.0Y-104.0
X102.0Y-106.0
X102.0Y-108.0
X102.0Y-110.0
X102.0Y-112.0
X102.0Y-114.0
X102.0Y-116.0
X102.0Y-118.0
X102.0Y-120.0
X102.0Y-122.0
X102.0Y-124.0
X102.0Y-126.0
X102.0Y-128.0
X102.0Y-130.0
X102.0Y-132.0
X102.0Y-134.0
X102.0Y-136.0
X102.0Y-138.0
X102.0Y-140.0
X102.0Y-142.0
X102.0Y-144.0
X102.0Y-146.0
X102.0Y-148.0
X102.0Y-150.0
X102.0Y-152.0
X102.0Y-154.0
X102.0Y-156.0
X102.0Y-158.0
X102.0Y-160.0
X102.0Y-162.0
X102.0Y-164.0
X102.0Y-166.0
X102.0Y-168.0
X102.0Y-170.0
X102.0Y-172.0
X102.0Y-174.0
X102.0Y-176.0
X102.0Y-178.0
X102.0Y-180.0
X102.0Y-182.0
X102.0Y-184.0
X102.0Y-186.0
X102.0Y-188.0
X102.0Y-190.0
X158.0Y-95.75
X159.5Y-128.5
X159.5Y-131.5
X160.0Y-95.75
X160.25Y-113.25
X160.25Y-123.0
X160.25Y-128.5
X160.25Y-131.5
X160.25Y-137.0
X160.25Y-146.75
X160.5Y-105.5
X160.5Y-106.75
X160.5Y-108.0
X160.75Y-112.75
X160.75Y-113.75
X160.75Y-122.5
X160.75Y-123.5
X160.75Y-136.5
X160.75Y-137.5
X160.75Y-146.25
X160.75Y-147.25
X161.5Y-106.75
X162.0Y-95.75
X164.0Y-95.75
X166.0Y-95.75
X168.0Y-95.75
X168.0Y-136.5
X168.0Y-137.5
X168.25Y-106.25
X168.25Y-107.25
X168.25Y-146.25
X168.25Y-147.25
X168.5Y-112.75
X168.5Y-113.75
X168.5Y-137.0
X168.75Y-106.75
X168.75Y-146.75
X169.0Y-113.25
X170.0Y-95.75
X172.0Y-95.75
X174.0Y-95.75
X176.0Y-95.75
X178.0Y-95.75
X180.0Y-95.75
X182.0Y-95.75
X184.0Y-95.75
X184.0Y-173.8
X185.2Y-172.15
X185.2Y-175.4
X186.0Y-95.75
X188.0Y-95.75
X188.4Y-180.3
X188.4Y-184.15
X189.25Y-179.25
X189.3Y-185.25
X190.0Y-95.75
X191.0Y-113.25
X191.25Y-106.75
X191.25Y-146.75
X191.5Y-112.75
X191.5Y-113.75
X191.5Y-137.0
X191.75Y-106.25
X191.75Y-107.25
X191.75Y-146.25
X191.75Y-147.25
X192.0Y-95.75
X192.0Y-136.5
X192.0Y-137.5
X192.7Y-179.25
X192.7Y-185.25
X193.6Y-180.3
X193.6Y-184.1
X194.0Y-95.75
X196.0Y-95.75
X198.0Y-95.75
X198.5Y-106.75
X199.0Y-122.5
X199.0Y-123.5
X199.0Y-136.5
X199.0Y-137.5
X199.25Y-112.75
X199.25Y-113.75
X199.25Y-146.25
X199.25Y-147.25
X199.5Y-105.5
X199.5Y-106.75
X199.5Y-108.0
X199.5Y-123.0
X199.5Y-137.0
X199.75Y-113.25
X199.75Y-128.5
X199.75Y-131.5
X199.75Y-146.75
X200.0Y-95.75
X200.5Y-128.5
X200.5Y-131.5
X202.0Y-95.75
X258.0Y-52.0
X258.0Y-54.0
X258.0Y-56.0
X258.0Y-58.0
X258.0Y-60.0
X258.0Y-62.0
X258.0Y-64.0
X258.0Y-66.0
X258.0Y-68.0
X258.0Y-70.0
X258.0Y-72.0
X258.0Y-74.0
X258.0Y-76.0
X258.0Y-78.0
X258.0Y-80.0
X258.0Y-82.0
X258.0Y-84.0
X258.0Y-86.0
X258.0Y-88.0
X258.0Y-90.0
X258.0Y-92.0
X258.0Y-94.0
X258.0Y-96.0
X258.0Y-98.0
X258.0Y-100.0
X258.0Y-102.0
X258.0Y-104.0
X258.0Y-106.0
X258.0Y-108.0
X258.0Y-110.0
X258.0Y-112.0
X258.0Y-114.0
X258.0Y-116.0
X258.0Y-118.0
X258.0Y-120.0
X258.0Y-122.0
X258.0Y-124.0
X258.0Y-126.0
X258.0Y-128.0
X258.0Y-130.0
X258.0Y-132.0
X258.0Y-134.0
X258.0Y-136.0
X258.0Y-138.0
X258.0Y-140.0
X258.0Y-142.0
X258.0Y-144.0
X258.0Y-146.0
X258.0Y-148.0
X258.0Y-150.0
X258.0Y-152.0
X258.0Y-154.0
X258.0Y-156.0
X258.0Y-158.0
X258.0Y-160.0
X258.0Y-162.0
X258.0Y-164.0
X258.0Y-166.0
X258.0Y-168.0
X258.0Y-170.0
X258.0Y-172.0
X258.0Y-174.0
X258.0Y-176.0
X258.0Y-178.0
X258.0Y-180.0
X258.0Y-182.0
X258.0Y-184.0
X258.0Y-186.0
X258.0Y-188.0
X258.0Y-190.0
T2
X102.25Y-45.75
X102.25Y-195.25
X103.0Y-44.0
X103.0Y-47.5
X103.0Y-193.5
X103.0Y-197.0
X104.75Y-43.25
X104.75Y-48.25
X104.75Y-192.75
X104.75Y-197.75
X106.5Y-44.0
X106.5Y-47.5
X106.5Y-193.5
X106.5Y-197.0
X107.25Y-45.75
X107.25Y-195.25
X252.75Y-45.75
X252.75Y-195.25
X253.5Y-44.0
X253.5Y-47.5
X253.5Y-193.5
X253.5Y-197.0
X255.25Y-43.25
X255.25Y-48.25
X255.25Y-192.75
X255.25Y-197.75
X257.0Y-44.0
X257.0Y-47.5
X257.0Y-193.5
X257.0Y-197.0
X257.75Y-45.75
X257.75Y-195.25
T3
X154.5Y-155.0
X164.5Y-155.0
X195.5Y-155.0
X205.5Y-155.0
T4
X117.0Y-55.5
X117.0Y-83.0
X117.0Y-90.0
X117.0Y-117.5
X117.0Y-124.5
X117.0Y-152.0
X132.8Y-79.0
X132.88Y-72.8
X148.12Y-72.8
X150.75Y-168.25
X158.2Y-79.0
X173.25Y-168.25
X202.0Y-79.0
X202.0Y-168.25
X212.0Y-72.5
X224.5Y-168.25
X227.24Y-72.5
X227.4Y-79.0
X243.0Y-78.0
X243.0Y-105.5
X243.0Y-112.5
X243.0Y-140.0
X243.0Y-147.0
X243.0Y-174.5
T5
X154.5Y-182.46
X154.5Y-187.54
X164.5Y-182.46
X164.5Y-187.54
X172.25Y-82.71
X172.25Y-87.79
X182.25Y-82.71
X182.25Y-87.79
X192.5Y-82.71
X192.5Y-87.79
X216.5Y-182.46
X216.5Y-187.54
X226.5Y-182.46
X226.5Y-187.54
T6
X179.0Y-193.5
X203.0Y-193.75
T7
X176.46Y-190.96
X176.46Y-196.04
X181.54Y-190.96
X181.54Y-196.04
X200.46Y-191.21
X200.46Y-196.29
X205.54Y-191.21
X205.54Y-196.29
T8
X104.75Y-45.75
X104.75Y-195.25
X255.25Y-45.75
X255.25Y-195.25
M30
