%TF.GenerationSoftware,KiCad,Pcbnew,8.0.6*%
%TF.CreationDate,2024-12-10T22:17:20+01:00*%
%TF.ProjectId,lisn-pcb,6c69736e-2d70-4636-922e-6b696361645f,rev?*%
%TF.SameCoordinates,Original*%
%TF.FileFunction,Copper,L1,Top*%
%TF.FilePolarity,Positive*%
%FSLAX46Y46*%
G04 Gerber Fmt 4.6, Leading zero omitted, Abs format (unit mm)*
G04 Created by KiCad (PCBNEW 8.0.6) date 2024-12-10 22:17:20*
%MOMM*%
%LPD*%
G01*
G04 APERTURE LIST*
G04 Aperture macros list*
%AMRoundRect*
0 Rectangle with rounded corners*
0 $1 Rounding radius*
0 $2 $3 $4 $5 $6 $7 $8 $9 X,Y pos of 4 corners*
0 Add a 4 corners polygon primitive as box body*
4,1,4,$2,$3,$4,$5,$6,$7,$8,$9,$2,$3,0*
0 Add four circle primitives for the rounded corners*
1,1,$1+$1,$2,$3*
1,1,$1+$1,$4,$5*
1,1,$1+$1,$6,$7*
1,1,$1+$1,$8,$9*
0 Add four rect primitives between the rounded corners*
20,1,$1+$1,$2,$3,$4,$5,0*
20,1,$1+$1,$4,$5,$6,$7,0*
20,1,$1+$1,$6,$7,$8,$9,0*
20,1,$1+$1,$8,$9,$2,$3,0*%
G04 Aperture macros list end*
%TA.AperFunction,EtchedComponent*%
%ADD10C,1.270000*%
%TD*%
%TA.AperFunction,EtchedComponent*%
%ADD11C,0.381000*%
%TD*%
%TA.AperFunction,ComponentPad*%
%ADD12C,2.400000*%
%TD*%
%TA.AperFunction,ComponentPad*%
%ADD13O,2.400000X2.400000*%
%TD*%
%TA.AperFunction,SMDPad,CuDef*%
%ADD14RoundRect,0.250000X-0.475000X0.250000X-0.475000X-0.250000X0.475000X-0.250000X0.475000X0.250000X0*%
%TD*%
%TA.AperFunction,SMDPad,CuDef*%
%ADD15R,0.600000X0.450000*%
%TD*%
%TA.AperFunction,SMDPad,CuDef*%
%ADD16R,0.900000X0.800000*%
%TD*%
%TA.AperFunction,ComponentPad*%
%ADD17C,3.000000*%
%TD*%
%TA.AperFunction,SMDPad,CuDef*%
%ADD18R,1.650000X2.000000*%
%TD*%
%TA.AperFunction,SMDPad,CuDef*%
%ADD19R,3.600000X2.300000*%
%TD*%
%TA.AperFunction,SMDPad,CuDef*%
%ADD20RoundRect,0.249999X0.262501X0.450001X-0.262501X0.450001X-0.262501X-0.450001X0.262501X-0.450001X0*%
%TD*%
%TA.AperFunction,SMDPad,CuDef*%
%ADD21RoundRect,0.249999X-0.450001X0.262501X-0.450001X-0.262501X0.450001X-0.262501X0.450001X0.262501X0*%
%TD*%
%TA.AperFunction,SMDPad,CuDef*%
%ADD22RoundRect,0.249999X-0.262501X-0.450001X0.262501X-0.450001X0.262501X0.450001X-0.262501X0.450001X0*%
%TD*%
%TA.AperFunction,SMDPad,CuDef*%
%ADD23RoundRect,0.249999X0.450001X-0.262501X0.450001X0.262501X-0.450001X0.262501X-0.450001X-0.262501X0*%
%TD*%
%TA.AperFunction,SMDPad,CuDef*%
%ADD24RoundRect,0.249999X0.625001X-0.312501X0.625001X0.312501X-0.625001X0.312501X-0.625001X-0.312501X0*%
%TD*%
%TA.AperFunction,SMDPad,CuDef*%
%ADD25R,1.650000X2.540000*%
%TD*%
%TA.AperFunction,ComponentPad*%
%ADD26C,2.000000*%
%TD*%
%TA.AperFunction,ComponentPad*%
%ADD27C,2.250000*%
%TD*%
%TA.AperFunction,ComponentPad*%
%ADD28C,0.800000*%
%TD*%
%TA.AperFunction,ComponentPad*%
%ADD29C,6.400000*%
%TD*%
%TA.AperFunction,ViaPad*%
%ADD30C,0.600000*%
%TD*%
%TA.AperFunction,Conductor*%
%ADD31C,2.500000*%
%TD*%
%TA.AperFunction,Conductor*%
%ADD32C,0.600000*%
%TD*%
%TA.AperFunction,Conductor*%
%ADD33C,1.500000*%
%TD*%
%TA.AperFunction,Conductor*%
%ADD34C,0.240000*%
%TD*%
G04 APERTURE END LIST*
D10*
%TO.C,REF\u002A\u002A*%
X113360000Y-186560000D02*
X122250000Y-175130000D01*
D11*
X120853000Y-181861000D02*
X122250000Y-181861000D01*
X120853000Y-184655000D02*
X121615000Y-184020000D01*
X120980000Y-183639000D02*
X120853000Y-184655000D01*
X121107000Y-184147000D02*
X120980000Y-183639000D01*
X121107000Y-184274000D02*
X122885000Y-181480000D01*
X121234000Y-181734000D02*
X122504000Y-181734000D01*
X121615000Y-181480000D02*
X123393000Y-179448000D01*
X121615000Y-184020000D02*
X121107000Y-184274000D01*
D10*
X122250000Y-175130000D02*
X131140000Y-186560000D01*
D11*
X122250000Y-181861000D02*
X121107000Y-184147000D01*
X122377000Y-179575000D02*
X120853000Y-181861000D01*
X122631000Y-179829000D02*
X121234000Y-181734000D01*
X122631000Y-179956000D02*
X122504000Y-179448000D01*
X122885000Y-181480000D02*
X121615000Y-181480000D01*
X123393000Y-179448000D02*
X122631000Y-179956000D01*
D10*
X131140000Y-186560000D02*
X113360000Y-186560000D01*
%TD*%
D12*
%TO.P,R44,1*%
%TO.N,Net-(C4-Pad1)*%
X227240000Y-72500000D03*
D13*
%TO.P,R44,2*%
%TO.N,GND*%
X212000000Y-72500000D03*
%TD*%
D12*
%TO.P,C1,2*%
%TO.N,GND*%
X117000000Y-117500000D03*
%TO.P,C1,1*%
%TO.N,Net-(C1-Pad1)*%
X117000000Y-90000000D03*
%TD*%
%TO.P,C2,2*%
%TO.N,GND*%
X117000000Y-152000000D03*
%TO.P,C2,1*%
%TO.N,Net-(C1-Pad1)*%
X117000000Y-124500000D03*
%TD*%
%TO.P,C3,2*%
%TO.N,GND*%
X117000000Y-55500000D03*
%TO.P,C3,1*%
%TO.N,Net-(C1-Pad1)*%
X117000000Y-83000000D03*
%TD*%
%TO.P,C4,2*%
%TO.N,GND*%
X243000000Y-174500000D03*
%TO.P,C4,1*%
%TO.N,Net-(C4-Pad1)*%
X243000000Y-147000000D03*
%TD*%
%TO.P,C5,2*%
%TO.N,GND*%
X243000000Y-112500000D03*
%TO.P,C5,1*%
%TO.N,Net-(C4-Pad1)*%
X243000000Y-140000000D03*
%TD*%
%TO.P,C6,2*%
%TO.N,GND*%
X243000000Y-105500000D03*
%TO.P,C6,1*%
%TO.N,Net-(C4-Pad1)*%
X243000000Y-78000000D03*
%TD*%
D14*
%TO.P,C7,2*%
%TO.N,Net-(C7-Pad2)*%
X164500000Y-134950000D03*
%TO.P,C7,1*%
%TO.N,Net-(C7-Pad1)*%
X164500000Y-133050000D03*
%TD*%
%TO.P,C8,2*%
%TO.N,Net-(C7-Pad1)*%
X164500000Y-126950000D03*
%TO.P,C8,1*%
%TO.N,Net-(C8-Pad1)*%
X164500000Y-125050000D03*
%TD*%
D12*
%TO.P,C9,2*%
%TO.N,/SIG1*%
X173250000Y-168250000D03*
%TO.P,C9,1*%
%TO.N,/DUT_LINE*%
X150750000Y-168250000D03*
%TD*%
D14*
%TO.P,C10,2*%
%TO.N,Net-(C10-Pad2)*%
X195500000Y-134950000D03*
%TO.P,C10,1*%
%TO.N,Net-(C10-Pad1)*%
X195500000Y-133050000D03*
%TD*%
%TO.P,C11,2*%
%TO.N,Net-(C10-Pad1)*%
X195500000Y-126950000D03*
%TO.P,C11,1*%
%TO.N,Net-(C11-Pad1)*%
X195500000Y-125050000D03*
%TD*%
D12*
%TO.P,C12,2*%
%TO.N,/SIG2*%
X202000000Y-168250000D03*
%TO.P,C12,1*%
%TO.N,/DUT_NUT*%
X224500000Y-168250000D03*
%TD*%
D15*
%TO.P,D1,2,A2*%
%TO.N,GND*%
X167800000Y-113250000D03*
%TO.P,D1,1,A1*%
%TO.N,Net-(D1-A1)*%
X165700000Y-113250000D03*
%TD*%
D16*
%TO.P,D2,3,common*%
%TO.N,/SIG1_LIM*%
X163500000Y-106750000D03*
%TO.P,D2,2,K*%
%TO.N,GND*%
X161500000Y-107700000D03*
%TO.P,D2,1,A*%
X161500000Y-105800000D03*
%TD*%
D15*
%TO.P,D3,2,A2*%
%TO.N,GND*%
X192200000Y-113250000D03*
%TO.P,D3,1,A1*%
%TO.N,Net-(D3-A1)*%
X194300000Y-113250000D03*
%TD*%
D16*
%TO.P,D4,3,common*%
%TO.N,/SIG2_LIM*%
X196500000Y-106750000D03*
%TO.P,D4,2,K*%
%TO.N,GND*%
X198500000Y-105800000D03*
%TO.P,D4,1,A*%
X198500000Y-107700000D03*
%TD*%
D17*
%TO.P,J3,1,Pin_1*%
%TO.N,/LINE*%
X172250000Y-82710000D03*
X172250000Y-87790000D03*
%TD*%
%TO.P,J4,1,Pin_1*%
%TO.N,/NEUTRAL*%
X192500000Y-82710000D03*
X192500000Y-87790000D03*
%TD*%
%TO.P,J5,1,Pin_1*%
%TO.N,GND*%
X182250000Y-82710000D03*
X182250000Y-87790000D03*
%TD*%
%TO.P,J6,1,Pin_1*%
%TO.N,/DUT_LINE*%
X154500000Y-187540000D03*
X154500000Y-182460000D03*
%TD*%
%TO.P,J7,1,Pin_1*%
%TO.N,/DUT_NUT*%
X226500000Y-182460000D03*
X226500000Y-187540000D03*
%TD*%
D18*
%TO.P,L1,2,2*%
%TO.N,GND*%
X159900000Y-130000000D03*
%TO.P,L1,1,1*%
%TO.N,Net-(C7-Pad1)*%
X164100000Y-130000000D03*
%TD*%
D19*
%TO.P,L2,2,2*%
%TO.N,Net-(L2-Pad2)*%
X141000000Y-99600000D03*
%TO.P,L2,1,1*%
%TO.N,/LINE*%
X141000000Y-90400000D03*
%TD*%
%TO.P,L3,2,2*%
%TO.N,Net-(L3-Pad2)*%
X141000000Y-113600000D03*
%TO.P,L3,1,1*%
%TO.N,Net-(L2-Pad2)*%
X141000000Y-104400000D03*
%TD*%
%TO.P,L4,2,2*%
%TO.N,Net-(L4-Pad2)*%
X141000000Y-127600000D03*
%TO.P,L4,1,1*%
%TO.N,Net-(L3-Pad2)*%
X141000000Y-118400000D03*
%TD*%
%TO.P,L5,2,2*%
%TO.N,Net-(L5-Pad2)*%
X141000000Y-141600000D03*
%TO.P,L5,1,1*%
%TO.N,Net-(L4-Pad2)*%
X141000000Y-132400000D03*
%TD*%
%TO.P,L6,2,2*%
%TO.N,/DUT_LINE*%
X141000000Y-155600000D03*
%TO.P,L6,1,1*%
%TO.N,Net-(L5-Pad2)*%
X141000000Y-146400000D03*
%TD*%
D18*
%TO.P,L7,2,2*%
%TO.N,GND*%
X200100000Y-130000000D03*
%TO.P,L7,1,1*%
%TO.N,Net-(C10-Pad1)*%
X195900000Y-130000000D03*
%TD*%
D12*
%TO.P,R1,1*%
%TO.N,/LINE*%
X158200000Y-79000000D03*
D13*
%TO.P,R1,2*%
%TO.N,Net-(C1-Pad1)*%
X132800000Y-79000000D03*
%TD*%
%TO.P,R2,2*%
%TO.N,Net-(C4-Pad1)*%
X227400000Y-79000000D03*
D12*
%TO.P,R2,1*%
%TO.N,/NEUTRAL*%
X202000000Y-79000000D03*
%TD*%
D20*
%TO.P,R3,2*%
%TO.N,GND*%
X193587500Y-179250000D03*
%TO.P,R3,1*%
%TO.N,Net-(R3-Pad1)*%
X195412500Y-179250000D03*
%TD*%
D21*
%TO.P,R4,2*%
%TO.N,/CM_OUT*%
X195500000Y-183162500D03*
%TO.P,R4,1*%
%TO.N,Net-(R3-Pad1)*%
X195500000Y-181337500D03*
%TD*%
D22*
%TO.P,R5,2*%
%TO.N,GND*%
X188412500Y-179250000D03*
%TO.P,R5,1*%
%TO.N,Net-(R5-Pad1)*%
X186587500Y-179250000D03*
%TD*%
D20*
%TO.P,R6,2*%
%TO.N,GND*%
X193587500Y-185250000D03*
%TO.P,R6,1*%
%TO.N,/CM_OUT*%
X195412500Y-185250000D03*
%TD*%
D21*
%TO.P,R7,2*%
%TO.N,/DM_OUT*%
X186250000Y-183162500D03*
%TO.P,R7,1*%
%TO.N,Net-(R5-Pad1)*%
X186250000Y-181337500D03*
%TD*%
D22*
%TO.P,R8,2*%
%TO.N,GND*%
X188412500Y-185250000D03*
%TO.P,R8,1*%
%TO.N,/DM_OUT*%
X186587500Y-185250000D03*
%TD*%
D20*
%TO.P,R9,2*%
%TO.N,GND*%
X161587500Y-146750000D03*
%TO.P,R9,1*%
%TO.N,/SIG1*%
X163412500Y-146750000D03*
%TD*%
D22*
%TO.P,R10,2*%
%TO.N,GND*%
X167412500Y-146750000D03*
%TO.P,R10,1*%
%TO.N,/SIG1*%
X165587500Y-146750000D03*
%TD*%
D21*
%TO.P,R11,2*%
%TO.N,/SIG1*%
X164500000Y-144662500D03*
%TO.P,R11,1*%
%TO.N,Net-(R11-Pad1)*%
X164500000Y-142837500D03*
%TD*%
%TO.P,R12,2*%
%TO.N,Net-(R11-Pad1)*%
X164500000Y-140912500D03*
%TO.P,R12,1*%
%TO.N,Net-(C7-Pad2)*%
X164500000Y-139087500D03*
%TD*%
D22*
%TO.P,R13,2*%
%TO.N,GND*%
X167162500Y-137000000D03*
%TO.P,R13,1*%
%TO.N,Net-(C7-Pad2)*%
X165337500Y-137000000D03*
%TD*%
D20*
%TO.P,R14,2*%
%TO.N,GND*%
X161587500Y-137000000D03*
%TO.P,R14,1*%
%TO.N,Net-(C7-Pad2)*%
X163412500Y-137000000D03*
%TD*%
%TO.P,R15,2*%
%TO.N,GND*%
X161587500Y-123000000D03*
%TO.P,R15,1*%
%TO.N,Net-(C8-Pad1)*%
X163412500Y-123000000D03*
%TD*%
D23*
%TO.P,R16,2*%
%TO.N,Net-(R16-Pad2)*%
X164500000Y-119087500D03*
%TO.P,R16,1*%
%TO.N,Net-(C8-Pad1)*%
X164500000Y-120912500D03*
%TD*%
%TO.P,R17,2*%
%TO.N,Net-(D1-A1)*%
X164500000Y-115337500D03*
%TO.P,R17,1*%
%TO.N,Net-(R16-Pad2)*%
X164500000Y-117162500D03*
%TD*%
D20*
%TO.P,R18,2*%
%TO.N,GND*%
X161587500Y-113250000D03*
%TO.P,R18,1*%
%TO.N,Net-(D1-A1)*%
X163412500Y-113250000D03*
%TD*%
D21*
%TO.P,R19,2*%
%TO.N,Net-(D1-A1)*%
X164500000Y-111162500D03*
%TO.P,R19,1*%
%TO.N,/SIG1_LIM*%
X164500000Y-109337500D03*
%TD*%
D22*
%TO.P,R20,2*%
%TO.N,GND*%
X167412500Y-106750000D03*
%TO.P,R20,1*%
%TO.N,/SIG1_LIM*%
X165587500Y-106750000D03*
%TD*%
D24*
%TO.P,R21,2*%
%TO.N,/LINE*%
X133000000Y-93537500D03*
%TO.P,R21,1*%
%TO.N,Net-(L2-Pad2)*%
X133000000Y-96462500D03*
%TD*%
%TO.P,R22,2*%
%TO.N,Net-(L2-Pad2)*%
X133000000Y-107537500D03*
%TO.P,R22,1*%
%TO.N,Net-(L3-Pad2)*%
X133000000Y-110462500D03*
%TD*%
%TO.P,R23,2*%
%TO.N,Net-(L3-Pad2)*%
X133000000Y-121537500D03*
%TO.P,R23,1*%
%TO.N,Net-(L4-Pad2)*%
X133000000Y-124462500D03*
%TD*%
%TO.P,R24,2*%
%TO.N,Net-(L4-Pad2)*%
X133000000Y-135537500D03*
%TO.P,R24,1*%
%TO.N,Net-(L5-Pad2)*%
X133000000Y-138462500D03*
%TD*%
%TO.P,R25,2*%
%TO.N,Net-(L5-Pad2)*%
X133000000Y-149537500D03*
%TO.P,R25,1*%
%TO.N,/DUT_LINE*%
X133000000Y-152462500D03*
%TD*%
D20*
%TO.P,R26,2*%
%TO.N,GND*%
X192587500Y-146750000D03*
%TO.P,R26,1*%
%TO.N,/SIG2*%
X194412500Y-146750000D03*
%TD*%
D22*
%TO.P,R27,2*%
%TO.N,GND*%
X198412500Y-146750000D03*
%TO.P,R27,1*%
%TO.N,/SIG2*%
X196587500Y-146750000D03*
%TD*%
D21*
%TO.P,R28,2*%
%TO.N,/SIG2*%
X195500000Y-144662500D03*
%TO.P,R28,1*%
%TO.N,Net-(R28-Pad1)*%
X195500000Y-142837500D03*
%TD*%
%TO.P,R29,2*%
%TO.N,Net-(R28-Pad1)*%
X195500000Y-140912500D03*
%TO.P,R29,1*%
%TO.N,Net-(C10-Pad2)*%
X195500000Y-139087500D03*
%TD*%
D20*
%TO.P,R30,2*%
%TO.N,GND*%
X192837500Y-137000000D03*
%TO.P,R30,1*%
%TO.N,Net-(C10-Pad2)*%
X194662500Y-137000000D03*
%TD*%
D22*
%TO.P,R31,2*%
%TO.N,GND*%
X198162500Y-137000000D03*
%TO.P,R31,1*%
%TO.N,Net-(C10-Pad2)*%
X196337500Y-137000000D03*
%TD*%
%TO.P,R32,2*%
%TO.N,GND*%
X198162500Y-123000000D03*
%TO.P,R32,1*%
%TO.N,Net-(C11-Pad1)*%
X196337500Y-123000000D03*
%TD*%
D23*
%TO.P,R33,2*%
%TO.N,Net-(R33-Pad2)*%
X195500000Y-119087500D03*
%TO.P,R33,1*%
%TO.N,Net-(C11-Pad1)*%
X195500000Y-120912500D03*
%TD*%
%TO.P,R34,2*%
%TO.N,Net-(D3-A1)*%
X195500000Y-115337500D03*
%TO.P,R34,1*%
%TO.N,Net-(R33-Pad2)*%
X195500000Y-117162500D03*
%TD*%
D22*
%TO.P,R35,2*%
%TO.N,GND*%
X198412500Y-113250000D03*
%TO.P,R35,1*%
%TO.N,Net-(D3-A1)*%
X196587500Y-113250000D03*
%TD*%
D21*
%TO.P,R36,2*%
%TO.N,Net-(D3-A1)*%
X195500000Y-111162500D03*
%TO.P,R36,1*%
%TO.N,/SIG2_LIM*%
X195500000Y-109337500D03*
%TD*%
D20*
%TO.P,R37,2*%
%TO.N,GND*%
X192587500Y-106750000D03*
%TO.P,R37,1*%
%TO.N,/SIG2_LIM*%
X194412500Y-106750000D03*
%TD*%
D25*
%TO.P,TR1,1*%
%TO.N,GND*%
X185210000Y-173790000D03*
%TO.P,TR1,2*%
%TO.N,N/C*%
X187750000Y-173790000D03*
%TO.P,TR1,3*%
%TO.N,Net-(R5-Pad1)*%
X190290000Y-173790000D03*
%TO.P,TR1,4*%
%TO.N,/SIG2_LIM*%
X190290000Y-168710000D03*
%TO.P,TR1,5*%
%TO.N,Net-(R3-Pad1)*%
X187750000Y-168710000D03*
%TO.P,TR1,6*%
%TO.N,/SIG1_LIM*%
X185210000Y-168710000D03*
%TD*%
D26*
%TO.P,GD1,2*%
%TO.N,GND*%
X154500000Y-155000000D03*
%TO.P,GD1,1*%
%TO.N,/SIG1*%
X164500000Y-155000000D03*
%TD*%
D19*
%TO.P,L11,2,2*%
%TO.N,Net-(L11-Pad2)*%
X219000000Y-142600000D03*
%TO.P,L11,1,1*%
%TO.N,Net-(L10-Pad2)*%
X219000000Y-133400000D03*
%TD*%
%TO.P,L9,2,2*%
%TO.N,Net-(L10-Pad1)*%
X219000000Y-114600000D03*
%TO.P,L9,1,1*%
%TO.N,Net-(L8-Pad2)*%
X219000000Y-105400000D03*
%TD*%
%TO.P,L12,2,2*%
%TO.N,/DUT_NUT*%
X219000000Y-156600000D03*
%TO.P,L12,1,1*%
%TO.N,Net-(L11-Pad2)*%
X219000000Y-147400000D03*
%TD*%
%TO.P,L10,2,2*%
%TO.N,Net-(L10-Pad2)*%
X219000000Y-128600000D03*
%TO.P,L10,1,1*%
%TO.N,Net-(L10-Pad1)*%
X219000000Y-119400000D03*
%TD*%
%TO.P,L8,2,2*%
%TO.N,Net-(L8-Pad2)*%
X219000000Y-100600000D03*
%TO.P,L8,1,1*%
%TO.N,/NEUTRAL*%
X219000000Y-91400000D03*
%TD*%
D24*
%TO.P,R42,2*%
%TO.N,Net-(L11-Pad2)*%
X227000000Y-150537500D03*
%TO.P,R42,1*%
%TO.N,/DUT_NUT*%
X227000000Y-153462500D03*
%TD*%
%TO.P,R38,2*%
%TO.N,/NEUTRAL*%
X227000000Y-94537500D03*
%TO.P,R38,1*%
%TO.N,Net-(L8-Pad2)*%
X227000000Y-97462500D03*
%TD*%
%TO.P,R40,2*%
%TO.N,Net-(L10-Pad1)*%
X227000000Y-122537500D03*
%TO.P,R40,1*%
%TO.N,Net-(L10-Pad2)*%
X227000000Y-125462500D03*
%TD*%
%TO.P,R39,2*%
%TO.N,Net-(L8-Pad2)*%
X227000000Y-108537500D03*
%TO.P,R39,1*%
%TO.N,Net-(L10-Pad1)*%
X227000000Y-111462500D03*
%TD*%
%TO.P,R41,2*%
%TO.N,Net-(L10-Pad2)*%
X227000000Y-136537500D03*
%TO.P,R41,1*%
%TO.N,Net-(L11-Pad2)*%
X227000000Y-139462500D03*
%TD*%
D26*
%TO.P,GD2,2*%
%TO.N,GND*%
X205500000Y-155000000D03*
%TO.P,GD2,1*%
%TO.N,/SIG2*%
X195500000Y-155000000D03*
%TD*%
D27*
%TO.P,J1,2,Ext*%
%TO.N,GND*%
X200460000Y-191210000D03*
X200460000Y-196290000D03*
X205540000Y-191210000D03*
X205540000Y-196290000D03*
%TO.P,J1,1,In*%
%TO.N,/CM_OUT*%
X203000000Y-193750000D03*
%TD*%
%TO.P,J2,2,Ext*%
%TO.N,GND*%
X176460000Y-190960000D03*
X176460000Y-196040000D03*
X181540000Y-190960000D03*
X181540000Y-196040000D03*
%TO.P,J2,1,In*%
%TO.N,/DM_OUT*%
X179000000Y-193500000D03*
%TD*%
D17*
%TO.P,J8,1,Pin_1*%
%TO.N,GND*%
X164500000Y-182460000D03*
X164500000Y-187540000D03*
%TD*%
%TO.P,J9,1,Pin_1*%
%TO.N,GND*%
X216500000Y-182460000D03*
X216500000Y-187540000D03*
%TD*%
D28*
%TO.P,H1,1,1*%
%TO.N,GND*%
X257750000Y-195250000D03*
X257000000Y-197000000D03*
X257000000Y-193500000D03*
X255250000Y-197750000D03*
D29*
X255250000Y-195250000D03*
D28*
X255250000Y-192750000D03*
X253500000Y-197000000D03*
X253500000Y-193500000D03*
X252750000Y-195250000D03*
%TD*%
%TO.P,H2,1,1*%
%TO.N,GND*%
X107250000Y-45750000D03*
X106500000Y-47500000D03*
X106500000Y-44000000D03*
X104750000Y-48250000D03*
D29*
X104750000Y-45750000D03*
D28*
X104750000Y-43250000D03*
X103000000Y-47500000D03*
X103000000Y-44000000D03*
X102250000Y-45750000D03*
%TD*%
%TO.P,H3,1,1*%
%TO.N,GND*%
X107250000Y-195250000D03*
X106500000Y-197000000D03*
X106500000Y-193500000D03*
X104750000Y-197750000D03*
D29*
X104750000Y-195250000D03*
D28*
X104750000Y-192750000D03*
X103000000Y-197000000D03*
X103000000Y-193500000D03*
X102250000Y-195250000D03*
%TD*%
%TO.P,H4,1,1*%
%TO.N,GND*%
X257750000Y-45750000D03*
X257000000Y-47500000D03*
X257000000Y-44000000D03*
X255250000Y-48250000D03*
D29*
X255250000Y-45750000D03*
D28*
X255250000Y-43250000D03*
X253500000Y-47500000D03*
X253500000Y-44000000D03*
X252750000Y-45750000D03*
%TD*%
D13*
%TO.P,R43,2*%
%TO.N,GND*%
X148120000Y-72800000D03*
D12*
%TO.P,R43,1*%
%TO.N,Net-(C1-Pad1)*%
X132880000Y-72800000D03*
%TD*%
D30*
%TO.N,GND*%
X102000000Y-188000000D03*
X102000000Y-186000000D03*
X102000000Y-184000000D03*
X102000000Y-182000000D03*
X102000000Y-180000000D03*
X102000000Y-178000000D03*
X102000000Y-176000000D03*
X102000000Y-174000000D03*
X102000000Y-172000000D03*
X102000000Y-170000000D03*
X102000000Y-168000000D03*
X102000000Y-166000000D03*
X102000000Y-164000000D03*
X102000000Y-162000000D03*
X102000000Y-160000000D03*
X102000000Y-158000000D03*
X102000000Y-156000000D03*
X102000000Y-154000000D03*
X102000000Y-152000000D03*
X102000000Y-150000000D03*
X102000000Y-148000000D03*
X102000000Y-146000000D03*
X102000000Y-144000000D03*
X102000000Y-142000000D03*
X102000000Y-140000000D03*
X102000000Y-138000000D03*
X102000000Y-136000000D03*
X102000000Y-134000000D03*
X102000000Y-132000000D03*
X102000000Y-130000000D03*
X102000000Y-128000000D03*
X102000000Y-126000000D03*
X102000000Y-124000000D03*
X102000000Y-122000000D03*
X102000000Y-120000000D03*
X102000000Y-118000000D03*
X102000000Y-116000000D03*
X102000000Y-114000000D03*
X102000000Y-112000000D03*
X102000000Y-110000000D03*
X102000000Y-108000000D03*
X102000000Y-106000000D03*
X102000000Y-104000000D03*
X102000000Y-102000000D03*
X102000000Y-100000000D03*
X102000000Y-98000000D03*
X102000000Y-96000000D03*
X102000000Y-94000000D03*
X102000000Y-92000000D03*
X102000000Y-90000000D03*
X102000000Y-88000000D03*
X102000000Y-86000000D03*
X102000000Y-84000000D03*
X102000000Y-82000000D03*
X102000000Y-80000000D03*
X102000000Y-78000000D03*
X102000000Y-76000000D03*
X102000000Y-74000000D03*
X102000000Y-72000000D03*
X102000000Y-70000000D03*
X102000000Y-68000000D03*
X102000000Y-66000000D03*
X102000000Y-64000000D03*
X102000000Y-62000000D03*
X102000000Y-60000000D03*
X102000000Y-58000000D03*
X102000000Y-56000000D03*
X102000000Y-54000000D03*
X102000000Y-52000000D03*
X258000000Y-188000000D03*
X258000000Y-186000000D03*
X258000000Y-184000000D03*
X258000000Y-182000000D03*
X258000000Y-180000000D03*
X258000000Y-178000000D03*
X258000000Y-176000000D03*
X258000000Y-174000000D03*
X258000000Y-172000000D03*
X258000000Y-170000000D03*
X258000000Y-168000000D03*
X258000000Y-166000000D03*
X258000000Y-164000000D03*
X258000000Y-162000000D03*
X258000000Y-160000000D03*
X258000000Y-158000000D03*
X258000000Y-156000000D03*
X258000000Y-154000000D03*
X258000000Y-152000000D03*
X258000000Y-150000000D03*
X258000000Y-148000000D03*
X258000000Y-146000000D03*
X258000000Y-144000000D03*
X258000000Y-142000000D03*
X258000000Y-140000000D03*
X258000000Y-138000000D03*
X258000000Y-136000000D03*
X258000000Y-134000000D03*
X258000000Y-132000000D03*
X258000000Y-130000000D03*
X258000000Y-128000000D03*
X258000000Y-126000000D03*
X258000000Y-124000000D03*
X258000000Y-122000000D03*
X258000000Y-120000000D03*
X258000000Y-118000000D03*
X258000000Y-116000000D03*
X258000000Y-114000000D03*
X258000000Y-112000000D03*
X258000000Y-110000000D03*
X258000000Y-108000000D03*
X258000000Y-106000000D03*
X258000000Y-104000000D03*
X258000000Y-102000000D03*
X258000000Y-100000000D03*
X258000000Y-98000000D03*
X258000000Y-96000000D03*
X258000000Y-94000000D03*
X258000000Y-92000000D03*
X258000000Y-90000000D03*
X258000000Y-88000000D03*
X258000000Y-86000000D03*
X258000000Y-84000000D03*
X258000000Y-82000000D03*
X258000000Y-80000000D03*
X258000000Y-78000000D03*
X258000000Y-76000000D03*
X258000000Y-74000000D03*
X258000000Y-72000000D03*
X258000000Y-70000000D03*
X258000000Y-68000000D03*
X258000000Y-66000000D03*
X258000000Y-64000000D03*
X258000000Y-62000000D03*
X258000000Y-60000000D03*
X258000000Y-58000000D03*
X258000000Y-56000000D03*
X258000000Y-54000000D03*
X258000000Y-52000000D03*
X160000000Y-95750000D03*
X162000000Y-95750000D03*
X164000000Y-95750000D03*
X166000000Y-95750000D03*
X168000000Y-95750000D03*
X170000000Y-95750000D03*
X172000000Y-95750000D03*
X174000000Y-95750000D03*
X176000000Y-95750000D03*
X178000000Y-95750000D03*
X180000000Y-95750000D03*
X182000000Y-95750000D03*
X184000000Y-95750000D03*
X186000000Y-95750000D03*
X188000000Y-95750000D03*
X190000000Y-95750000D03*
X192000000Y-95750000D03*
X194000000Y-95750000D03*
X196000000Y-95750000D03*
X198000000Y-95750000D03*
X200000000Y-95750000D03*
X168250000Y-107250000D03*
X193600000Y-180300000D03*
X200500000Y-131500000D03*
X199500000Y-108000000D03*
X199500000Y-105500000D03*
X199500000Y-123000000D03*
X161500000Y-106750000D03*
X159500000Y-128500000D03*
X168250000Y-106250000D03*
X192000000Y-136500000D03*
X160250000Y-123000000D03*
X160750000Y-112750000D03*
X192700000Y-185250000D03*
X191250000Y-106750000D03*
X191500000Y-113750000D03*
X199500000Y-106750000D03*
X158000000Y-95750000D03*
X199000000Y-122500000D03*
X160750000Y-137500000D03*
X160750000Y-122500000D03*
X188400000Y-184150000D03*
X160750000Y-123500000D03*
X191750000Y-147250000D03*
X193600000Y-184100000D03*
X191750000Y-107250000D03*
X168500000Y-113750000D03*
X160250000Y-146750000D03*
X199250000Y-146250000D03*
X199000000Y-136500000D03*
X199000000Y-137500000D03*
X199500000Y-137000000D03*
X168250000Y-147250000D03*
X192700000Y-179250000D03*
X160250000Y-131500000D03*
X199750000Y-113250000D03*
X191500000Y-137000000D03*
X191500000Y-112750000D03*
X160250000Y-128500000D03*
X189250000Y-179250000D03*
X102000000Y-190000000D03*
X198500000Y-106750000D03*
X199750000Y-146750000D03*
X160250000Y-113250000D03*
X258000000Y-190000000D03*
X185200000Y-175400000D03*
X192000000Y-137500000D03*
X168000000Y-137500000D03*
X199250000Y-112750000D03*
X160750000Y-136500000D03*
X189300000Y-185250000D03*
X202000000Y-95750000D03*
X199750000Y-131500000D03*
X159500000Y-131500000D03*
X160500000Y-108000000D03*
X168750000Y-106750000D03*
X160750000Y-146250000D03*
X168000000Y-136500000D03*
X168750000Y-146750000D03*
X199250000Y-147250000D03*
X188400000Y-180300000D03*
X168250000Y-146250000D03*
X191250000Y-146750000D03*
X160750000Y-113750000D03*
X185200000Y-172150000D03*
X199000000Y-123500000D03*
X160750000Y-147250000D03*
X191750000Y-146250000D03*
X199250000Y-113750000D03*
X160500000Y-106750000D03*
X168500000Y-137000000D03*
X184000000Y-173800000D03*
X191000000Y-113250000D03*
X199750000Y-128500000D03*
X191750000Y-106250000D03*
X200500000Y-128500000D03*
X160500000Y-105500000D03*
X168500000Y-112750000D03*
X160250000Y-137000000D03*
X169000000Y-113250000D03*
%TD*%
D31*
%TO.N,Net-(C4-Pad1)*%
X227400000Y-72660000D02*
X227240000Y-72500000D01*
X227400000Y-79000000D02*
X227400000Y-72660000D01*
%TO.N,Net-(C1-Pad1)*%
X132800000Y-72880000D02*
X132880000Y-72800000D01*
X132800000Y-79000000D02*
X132800000Y-72880000D01*
X128800000Y-83000000D02*
X132800000Y-79000000D01*
X117000000Y-83000000D02*
X128800000Y-83000000D01*
%TO.N,/LINE*%
X172210000Y-82750000D02*
X172250000Y-82710000D01*
D32*
%TO.N,GND*%
X185210000Y-173790000D02*
X185210000Y-175390000D01*
X193587500Y-185250000D02*
X192700000Y-185250000D01*
X193587500Y-184112500D02*
X193600000Y-184100000D01*
X184010000Y-173790000D02*
X184000000Y-173800000D01*
X185210000Y-172160000D02*
X185200000Y-172150000D01*
X193587500Y-179250000D02*
X192700000Y-179250000D01*
X193587500Y-185250000D02*
X193587500Y-184112500D01*
X188412500Y-185250000D02*
X188412500Y-184162500D01*
X193587500Y-179250000D02*
X193587500Y-180287500D01*
X185210000Y-173790000D02*
X185210000Y-172160000D01*
X188412500Y-179250000D02*
X189250000Y-179250000D01*
X185210000Y-173790000D02*
X184010000Y-173790000D01*
X185210000Y-175390000D02*
X185200000Y-175400000D01*
X188412500Y-180287500D02*
X188400000Y-180300000D01*
X193587500Y-180287500D02*
X193600000Y-180300000D01*
X188412500Y-185250000D02*
X189300000Y-185250000D01*
X188412500Y-179250000D02*
X188412500Y-180287500D01*
X188412500Y-184162500D02*
X188400000Y-184150000D01*
D31*
%TO.N,Net-(C1-Pad1)*%
X122500000Y-124500000D02*
X117000000Y-124500000D01*
X125500000Y-121500000D02*
X122500000Y-124500000D01*
X117000000Y-90000000D02*
X117000000Y-102500000D01*
X125500000Y-111000000D02*
X125500000Y-121500000D01*
X117000000Y-83000000D02*
X117000000Y-90000000D01*
X117000000Y-102500000D02*
X125500000Y-111000000D01*
%TO.N,Net-(C4-Pad1)*%
X243000000Y-122750000D02*
X234500000Y-114250000D01*
X239000000Y-78000000D02*
X243000000Y-78000000D01*
X243000000Y-84750000D02*
X243000000Y-78000000D01*
X243000000Y-147000000D02*
X243000000Y-140000000D01*
X243000000Y-92500000D02*
X243000000Y-84750000D01*
X234500000Y-114250000D02*
X234500000Y-101000000D01*
X227400000Y-79000000D02*
X238000000Y-79000000D01*
X243000000Y-140000000D02*
X243000000Y-122750000D01*
X238000000Y-79000000D02*
X239000000Y-78000000D01*
X234500000Y-101000000D02*
X243000000Y-92500000D01*
%TO.N,/SIG1*%
X164500000Y-155000000D02*
X164500000Y-145750000D01*
X164500000Y-163000000D02*
X169750000Y-168250000D01*
X164500000Y-155000000D02*
X164500000Y-163000000D01*
X169750000Y-168250000D02*
X173250000Y-168250000D01*
D32*
%TO.N,/DUT_LINE*%
X133000000Y-152462500D02*
X135462500Y-152462500D01*
X135462500Y-152462500D02*
X138600000Y-155600000D01*
X138600000Y-155600000D02*
X141000000Y-155600000D01*
D31*
%TO.N,/SIG2*%
X195500000Y-155000000D02*
X195500000Y-145250000D01*
X202000000Y-163750000D02*
X202000000Y-168250000D01*
X195500000Y-157250000D02*
X202000000Y-163750000D01*
X195500000Y-155000000D02*
X195500000Y-157250000D01*
D32*
%TO.N,/DUT_NUT*%
X224537500Y-153462500D02*
X221400000Y-156600000D01*
X227000000Y-153462500D02*
X224537500Y-153462500D01*
X221400000Y-156600000D02*
X219000000Y-156600000D01*
%TO.N,/SIG1_LIM*%
X164500000Y-102500000D02*
X164500000Y-109337500D01*
D31*
X164500000Y-102500000D02*
X164500000Y-107000000D01*
D33*
X185210000Y-168710000D02*
X185210000Y-166540000D01*
D31*
X185210000Y-166540000D02*
X185210000Y-166210000D01*
X174750000Y-155750000D02*
X174750000Y-102250000D01*
X174750000Y-102250000D02*
X173500000Y-101000000D01*
D34*
X165587500Y-106750000D02*
X165000000Y-106750000D01*
D31*
X185210000Y-166210000D02*
X174750000Y-155750000D01*
X166000000Y-101000000D02*
X164500000Y-102500000D01*
X173500000Y-101000000D02*
X166000000Y-101000000D01*
D32*
%TO.N,/SIG2_LIM*%
X195500000Y-102500000D02*
X195500000Y-103000000D01*
D31*
X190250000Y-162500000D02*
X185250000Y-157500000D01*
X186500000Y-101250000D02*
X194250000Y-101250000D01*
X185250000Y-157500000D02*
X185250000Y-102500000D01*
D33*
X190290000Y-168710000D02*
X190290000Y-167290000D01*
D31*
X185250000Y-102500000D02*
X186500000Y-101250000D01*
X194250000Y-101250000D02*
X195500000Y-102500000D01*
D32*
X195500000Y-103000000D02*
X195500000Y-109337500D01*
D31*
X195500000Y-103000000D02*
X195500000Y-106750000D01*
X190250000Y-167250000D02*
X190250000Y-162500000D01*
D33*
%TO.N,/CM_OUT*%
X197750000Y-193750000D02*
X203000000Y-193750000D01*
X195500000Y-191500000D02*
X197750000Y-193750000D01*
X195500000Y-183162500D02*
X195500000Y-191500000D01*
%TO.N,/DM_OUT*%
X186250000Y-191500000D02*
X184250000Y-193500000D01*
X186250000Y-183162500D02*
X186250000Y-191500000D01*
X184250000Y-193500000D02*
X179000000Y-193500000D01*
D32*
%TO.N,/LINE*%
X134962500Y-93537500D02*
X138100000Y-90400000D01*
X138100000Y-90400000D02*
X141000000Y-90400000D01*
X133000000Y-93537500D02*
X134962500Y-93537500D01*
%TO.N,/NEUTRAL*%
X224537500Y-94537500D02*
X221400000Y-91400000D01*
X221400000Y-91400000D02*
X219000000Y-91400000D01*
X227000000Y-94537500D02*
X224537500Y-94537500D01*
%TO.N,Net-(L2-Pad2)*%
X133000000Y-96462500D02*
X134962500Y-96462500D01*
X133000000Y-107537500D02*
X135212500Y-107537500D01*
X135212500Y-107537500D02*
X138350000Y-104400000D01*
X138100000Y-99600000D02*
X141000000Y-99600000D01*
X134962500Y-96462500D02*
X138100000Y-99600000D01*
X138350000Y-104400000D02*
X141000000Y-104400000D01*
%TO.N,Net-(L3-Pad2)*%
X138350000Y-118400000D02*
X141000000Y-118400000D01*
X135212500Y-121537500D02*
X138350000Y-118400000D01*
X141000000Y-113600000D02*
X138350000Y-113600000D01*
X133000000Y-121537500D02*
X135212500Y-121537500D01*
X135212500Y-110462500D02*
X133000000Y-110462500D01*
X138350000Y-113600000D02*
X135212500Y-110462500D01*
%TO.N,Net-(L4-Pad2)*%
X141000000Y-127600000D02*
X138350000Y-127600000D01*
X135212500Y-135537500D02*
X138350000Y-132400000D01*
X135212500Y-124462500D02*
X133000000Y-124462500D01*
X133000000Y-135537500D02*
X135212500Y-135537500D01*
X138350000Y-127600000D02*
X135212500Y-124462500D01*
X138350000Y-132400000D02*
X141000000Y-132400000D01*
%TO.N,Net-(L5-Pad2)*%
X133000000Y-138462500D02*
X135212500Y-138462500D01*
X135212500Y-138462500D02*
X138350000Y-141600000D01*
X133000000Y-149537500D02*
X135462500Y-149537500D01*
X138600000Y-146400000D02*
X141000000Y-146400000D01*
X135462500Y-149537500D02*
X138600000Y-146400000D01*
X138350000Y-141600000D02*
X141000000Y-141600000D01*
%TO.N,Net-(L8-Pad2)*%
X221650000Y-100600000D02*
X224787500Y-97462500D01*
X224787500Y-97462500D02*
X227000000Y-97462500D01*
X227000000Y-108537500D02*
X224537500Y-108537500D01*
X224537500Y-108537500D02*
X221400000Y-105400000D01*
X219000000Y-100600000D02*
X221650000Y-100600000D01*
X221400000Y-105400000D02*
X219000000Y-105400000D01*
%TO.N,Net-(L10-Pad1)*%
X224787500Y-111462500D02*
X227000000Y-111462500D01*
X219000000Y-114600000D02*
X221650000Y-114600000D01*
X221400000Y-119400000D02*
X224537500Y-122537500D01*
X224537500Y-122537500D02*
X227000000Y-122537500D01*
X219000000Y-119400000D02*
X221400000Y-119400000D01*
X221650000Y-114600000D02*
X224787500Y-111462500D01*
%TO.N,Net-(L10-Pad2)*%
X221400000Y-128600000D02*
X224537500Y-125462500D01*
X219000000Y-128600000D02*
X221400000Y-128600000D01*
X224537500Y-125462500D02*
X227000000Y-125462500D01*
X221650000Y-133400000D02*
X224787500Y-136537500D01*
X224787500Y-136537500D02*
X227000000Y-136537500D01*
X219000000Y-133400000D02*
X221650000Y-133400000D01*
%TO.N,Net-(L11-Pad2)*%
X224537500Y-139462500D02*
X221400000Y-142600000D01*
X221650000Y-147400000D02*
X224787500Y-150537500D01*
X219000000Y-147400000D02*
X221650000Y-147400000D01*
X227000000Y-139462500D02*
X224537500Y-139462500D01*
X221400000Y-142600000D02*
X219000000Y-142600000D01*
X224787500Y-150537500D02*
X227000000Y-150537500D01*
D33*
%TO.N,Net-(R3-Pad1)*%
X187750000Y-168710000D02*
X187750000Y-170750000D01*
X193500000Y-171250000D02*
X195412500Y-173162500D01*
X188250000Y-171250000D02*
X193500000Y-171250000D01*
X195500000Y-173250000D02*
X193500000Y-171250000D01*
X187750000Y-170750000D02*
X188250000Y-171250000D01*
X195500000Y-181337500D02*
X195500000Y-173250000D01*
%TO.N,Net-(R5-Pad1)*%
X186250000Y-177250000D02*
X186250000Y-181337500D01*
X190290000Y-175960000D02*
X189500000Y-176750000D01*
X189500000Y-176750000D02*
X186750000Y-176750000D01*
X186750000Y-176750000D02*
X186250000Y-177250000D01*
X190290000Y-173790000D02*
X190290000Y-175960000D01*
%TD*%
%TA.AperFunction,Conductor*%
%TO.N,GND*%
G36*
X202692121Y-95270002D02*
G01*
X202738614Y-95323658D01*
X202750000Y-95376000D01*
X202750000Y-96124000D01*
X202729998Y-96192121D01*
X202676342Y-96238614D01*
X202624000Y-96250000D01*
X157626000Y-96250000D01*
X157557879Y-96229998D01*
X157511386Y-96176342D01*
X157500000Y-96124000D01*
X157500000Y-95376000D01*
X157520002Y-95307879D01*
X157573658Y-95261386D01*
X157626000Y-95250000D01*
X202624000Y-95250000D01*
X202692121Y-95270002D01*
G37*
%TD.AperFunction*%
%TD*%
%TA.AperFunction,Conductor*%
%TO.N,GND*%
G36*
X259916621Y-41045502D02*
G01*
X259963114Y-41099158D01*
X259974500Y-41151500D01*
X259974500Y-199848500D01*
X259954498Y-199916621D01*
X259900842Y-199963114D01*
X259848500Y-199974500D01*
X255626000Y-199974500D01*
X255557879Y-199954498D01*
X255511386Y-199900842D01*
X255500000Y-199848500D01*
X255500000Y-41151500D01*
X255520002Y-41083379D01*
X255573658Y-41036886D01*
X255626000Y-41025500D01*
X259848500Y-41025500D01*
X259916621Y-41045502D01*
G37*
%TD.AperFunction*%
%TD*%
%TA.AperFunction,Conductor*%
%TO.N,GND*%
G36*
X104442121Y-41045502D02*
G01*
X104488614Y-41099158D01*
X104500000Y-41151500D01*
X104500000Y-199848500D01*
X104479998Y-199916621D01*
X104426342Y-199963114D01*
X104374000Y-199974500D01*
X100151500Y-199974500D01*
X100083379Y-199954498D01*
X100036886Y-199900842D01*
X100025500Y-199848500D01*
X100025500Y-41151500D01*
X100045502Y-41083379D01*
X100099158Y-41036886D01*
X100151500Y-41025500D01*
X104374000Y-41025500D01*
X104442121Y-41045502D01*
G37*
%TD.AperFunction*%
%TD*%
%TA.AperFunction,Conductor*%
%TO.N,GND*%
G36*
X160675500Y-128019962D02*
G01*
X160730038Y-128074500D01*
X160750000Y-128149000D01*
X160750000Y-131851000D01*
X160730038Y-131925500D01*
X160675500Y-131980038D01*
X160601000Y-132000000D01*
X159149000Y-132000000D01*
X159074500Y-131980038D01*
X159019962Y-131925500D01*
X159000000Y-131851000D01*
X159000000Y-128149000D01*
X159019962Y-128074500D01*
X159074500Y-128019962D01*
X159149000Y-128000000D01*
X160601000Y-128000000D01*
X160675500Y-128019962D01*
G37*
%TD.AperFunction*%
%TD*%
%TA.AperFunction,Conductor*%
%TO.N,GND*%
G36*
X161925500Y-105019962D02*
G01*
X161980038Y-105074500D01*
X162000000Y-105149000D01*
X162000000Y-108351000D01*
X161980038Y-108425500D01*
X161925500Y-108480038D01*
X161851000Y-108500000D01*
X159899000Y-108500000D01*
X159824500Y-108480038D01*
X159769962Y-108425500D01*
X159750000Y-108351000D01*
X159750000Y-105149000D01*
X159769962Y-105074500D01*
X159824500Y-105019962D01*
X159899000Y-105000000D01*
X161851000Y-105000000D01*
X161925500Y-105019962D01*
G37*
%TD.AperFunction*%
%TD*%
%TA.AperFunction,Conductor*%
%TO.N,GND*%
G36*
X200925500Y-128019962D02*
G01*
X200980038Y-128074500D01*
X201000000Y-128149000D01*
X201000000Y-131851000D01*
X200980038Y-131925500D01*
X200925500Y-131980038D01*
X200851000Y-132000000D01*
X199399000Y-132000000D01*
X199324500Y-131980038D01*
X199269962Y-131925500D01*
X199250000Y-131851000D01*
X199250000Y-128149000D01*
X199269962Y-128074500D01*
X199324500Y-128019962D01*
X199399000Y-128000000D01*
X200851000Y-128000000D01*
X200925500Y-128019962D01*
G37*
%TD.AperFunction*%
%TD*%
%TA.AperFunction,Conductor*%
%TO.N,GND*%
G36*
X200175500Y-105019962D02*
G01*
X200230038Y-105074500D01*
X200250000Y-105149000D01*
X200250000Y-108351000D01*
X200230038Y-108425500D01*
X200175500Y-108480038D01*
X200101000Y-108500000D01*
X198149000Y-108500000D01*
X198074500Y-108480038D01*
X198019962Y-108425500D01*
X198000000Y-108351000D01*
X198000000Y-105149000D01*
X198019962Y-105074500D01*
X198074500Y-105019962D01*
X198149000Y-105000000D01*
X200101000Y-105000000D01*
X200175500Y-105019962D01*
G37*
%TD.AperFunction*%
%TD*%
%TA.AperFunction,Conductor*%
%TO.N,/DUT_LINE*%
G36*
X142925500Y-154269962D02*
G01*
X142980038Y-154324500D01*
X143000000Y-154399000D01*
X143000000Y-156750000D01*
X156212673Y-171707743D01*
X156247032Y-171776792D01*
X156250000Y-171806384D01*
X156250000Y-189101000D01*
X156230038Y-189175500D01*
X156175500Y-189230038D01*
X156101000Y-189250000D01*
X151149000Y-189250000D01*
X151074500Y-189230038D01*
X151019962Y-189175500D01*
X151000000Y-189101000D01*
X151000000Y-180250000D01*
X139157766Y-165291389D01*
X139127175Y-165220587D01*
X139125599Y-165197222D01*
X139248326Y-154397306D01*
X139269133Y-154323039D01*
X139324287Y-154269124D01*
X139397316Y-154250000D01*
X142851000Y-154250000D01*
X142925500Y-154269962D01*
G37*
%TD.AperFunction*%
%TD*%
%TA.AperFunction,Conductor*%
%TO.N,/DUT_NUT*%
G36*
X220675500Y-155519962D02*
G01*
X220730038Y-155574500D01*
X220750000Y-155649000D01*
X220750000Y-157750000D01*
X229106323Y-169210100D01*
X229471393Y-169710767D01*
X229499157Y-169782725D01*
X229500000Y-169798554D01*
X229500000Y-189351000D01*
X229480038Y-189425500D01*
X229425500Y-189480038D01*
X229351000Y-189500000D01*
X224899000Y-189500000D01*
X224824500Y-189480038D01*
X224769962Y-189425500D01*
X224750000Y-189351000D01*
X224750000Y-182250001D01*
X224750000Y-182250000D01*
X218516615Y-171445466D01*
X217269938Y-169284559D01*
X217250000Y-169210100D01*
X217250000Y-155649000D01*
X217269962Y-155574500D01*
X217324500Y-155519962D01*
X217399000Y-155500000D01*
X220601000Y-155500000D01*
X220675500Y-155519962D01*
G37*
%TD.AperFunction*%
%TD*%
%TA.AperFunction,Conductor*%
%TO.N,/NEUTRAL*%
G36*
X205910326Y-77519962D02*
G01*
X205924515Y-77529270D01*
X220623622Y-88417498D01*
X220671605Y-88477883D01*
X220683912Y-88534745D01*
X220747475Y-92348517D01*
X220728757Y-92423339D01*
X220675136Y-92478778D01*
X220600979Y-92499979D01*
X220598496Y-92500000D01*
X213046278Y-92500000D01*
X212971778Y-92480038D01*
X212961865Y-92473782D01*
X212112893Y-91890114D01*
X209000000Y-89750000D01*
X208999999Y-89750000D01*
X190899000Y-89750000D01*
X190824500Y-89730038D01*
X190769962Y-89675500D01*
X190750000Y-89601000D01*
X190750000Y-77649000D01*
X190769962Y-77574500D01*
X190824500Y-77519962D01*
X190899000Y-77500000D01*
X205835826Y-77500000D01*
X205910326Y-77519962D01*
G37*
%TD.AperFunction*%
%TD*%
%TA.AperFunction,Conductor*%
%TO.N,/LINE*%
G36*
X173925500Y-77269962D02*
G01*
X173980038Y-77324500D01*
X174000000Y-77399000D01*
X174000000Y-89351000D01*
X173980038Y-89425500D01*
X173925500Y-89480038D01*
X173851000Y-89500000D01*
X149125000Y-89500000D01*
X146918641Y-91706359D01*
X146851846Y-91744923D01*
X146813282Y-91750000D01*
X139149000Y-91750000D01*
X139074500Y-91730038D01*
X139019962Y-91675500D01*
X139000000Y-91601000D01*
X139000000Y-88821222D01*
X139019962Y-88746722D01*
X139055425Y-88705271D01*
X153209048Y-77283049D01*
X153279561Y-77251796D01*
X153302623Y-77250000D01*
X173851000Y-77250000D01*
X173925500Y-77269962D01*
G37*
%TD.AperFunction*%
%TD*%
%TA.AperFunction,Conductor*%
%TO.N,/SIG1_LIM*%
G36*
X165925500Y-104519962D02*
G01*
X165980038Y-104574500D01*
X166000000Y-104649000D01*
X166000000Y-109601000D01*
X165980038Y-109675500D01*
X165925500Y-109730038D01*
X165851000Y-109750000D01*
X163149000Y-109750000D01*
X163074500Y-109730038D01*
X163019962Y-109675500D01*
X163000000Y-109601000D01*
X163000000Y-104649000D01*
X163019962Y-104574500D01*
X163074500Y-104519962D01*
X163149000Y-104500000D01*
X165851000Y-104500000D01*
X165925500Y-104519962D01*
G37*
%TD.AperFunction*%
%TD*%
%TA.AperFunction,Conductor*%
%TO.N,GND*%
G36*
X169175500Y-105769962D02*
G01*
X169230038Y-105824500D01*
X169250000Y-105899000D01*
X169250000Y-107601000D01*
X169230038Y-107675500D01*
X169175500Y-107730038D01*
X169101000Y-107750000D01*
X166899000Y-107750000D01*
X166824500Y-107730038D01*
X166769962Y-107675500D01*
X166750000Y-107601000D01*
X166750000Y-105899000D01*
X166769962Y-105824500D01*
X166824500Y-105769962D01*
X166899000Y-105750000D01*
X169101000Y-105750000D01*
X169175500Y-105769962D01*
G37*
%TD.AperFunction*%
%TD*%
%TA.AperFunction,Conductor*%
%TO.N,GND*%
G36*
X192925500Y-105769962D02*
G01*
X192980038Y-105824500D01*
X193000000Y-105899000D01*
X193000000Y-107601000D01*
X192980038Y-107675500D01*
X192925500Y-107730038D01*
X192851000Y-107750000D01*
X190649000Y-107750000D01*
X190574500Y-107730038D01*
X190519962Y-107675500D01*
X190500000Y-107601000D01*
X190500000Y-105899000D01*
X190519962Y-105824500D01*
X190574500Y-105769962D01*
X190649000Y-105750000D01*
X192851000Y-105750000D01*
X192925500Y-105769962D01*
G37*
%TD.AperFunction*%
%TD*%
%TA.AperFunction,Conductor*%
%TO.N,Net-(L2-Pad2)*%
G36*
X142675500Y-98519962D02*
G01*
X142730038Y-98574500D01*
X142750000Y-98649000D01*
X142750000Y-105351000D01*
X142730038Y-105425500D01*
X142675500Y-105480038D01*
X142601000Y-105500000D01*
X139399000Y-105500000D01*
X139324500Y-105480038D01*
X139269962Y-105425500D01*
X139250000Y-105351000D01*
X139250000Y-98649000D01*
X139269962Y-98574500D01*
X139324500Y-98519962D01*
X139399000Y-98500000D01*
X142601000Y-98500000D01*
X142675500Y-98519962D01*
G37*
%TD.AperFunction*%
%TD*%
%TA.AperFunction,Conductor*%
%TO.N,Net-(L3-Pad2)*%
G36*
X142675500Y-112519962D02*
G01*
X142730038Y-112574500D01*
X142750000Y-112649000D01*
X142750000Y-119351000D01*
X142730038Y-119425500D01*
X142675500Y-119480038D01*
X142601000Y-119500000D01*
X139399000Y-119500000D01*
X139324500Y-119480038D01*
X139269962Y-119425500D01*
X139250000Y-119351000D01*
X139250000Y-112649000D01*
X139269962Y-112574500D01*
X139324500Y-112519962D01*
X139399000Y-112500000D01*
X142601000Y-112500000D01*
X142675500Y-112519962D01*
G37*
%TD.AperFunction*%
%TD*%
%TA.AperFunction,Conductor*%
%TO.N,Net-(L4-Pad2)*%
G36*
X142675500Y-126519962D02*
G01*
X142730038Y-126574500D01*
X142750000Y-126649000D01*
X142750000Y-133351000D01*
X142730038Y-133425500D01*
X142675500Y-133480038D01*
X142601000Y-133500000D01*
X139399000Y-133500000D01*
X139324500Y-133480038D01*
X139269962Y-133425500D01*
X139250000Y-133351000D01*
X139250000Y-126649000D01*
X139269962Y-126574500D01*
X139324500Y-126519962D01*
X139399000Y-126500000D01*
X142601000Y-126500000D01*
X142675500Y-126519962D01*
G37*
%TD.AperFunction*%
%TD*%
%TA.AperFunction,Conductor*%
%TO.N,Net-(L5-Pad2)*%
G36*
X142675500Y-140519962D02*
G01*
X142730038Y-140574500D01*
X142750000Y-140649000D01*
X142750000Y-147351000D01*
X142730038Y-147425500D01*
X142675500Y-147480038D01*
X142601000Y-147500000D01*
X139399000Y-147500000D01*
X139324500Y-147480038D01*
X139269962Y-147425500D01*
X139250000Y-147351000D01*
X139250000Y-140649000D01*
X139269962Y-140574500D01*
X139324500Y-140519962D01*
X139399000Y-140500000D01*
X142601000Y-140500000D01*
X142675500Y-140519962D01*
G37*
%TD.AperFunction*%
%TD*%
%TA.AperFunction,Conductor*%
%TO.N,Net-(L8-Pad2)*%
G36*
X220675500Y-99519962D02*
G01*
X220730038Y-99574500D01*
X220750000Y-99649000D01*
X220750000Y-106351000D01*
X220730038Y-106425500D01*
X220675500Y-106480038D01*
X220601000Y-106500000D01*
X217399000Y-106500000D01*
X217324500Y-106480038D01*
X217269962Y-106425500D01*
X217250000Y-106351000D01*
X217250000Y-99649000D01*
X217269962Y-99574500D01*
X217324500Y-99519962D01*
X217399000Y-99500000D01*
X220601000Y-99500000D01*
X220675500Y-99519962D01*
G37*
%TD.AperFunction*%
%TD*%
%TA.AperFunction,Conductor*%
%TO.N,Net-(L10-Pad1)*%
G36*
X220675500Y-113519962D02*
G01*
X220730038Y-113574500D01*
X220750000Y-113649000D01*
X220750000Y-120351000D01*
X220730038Y-120425500D01*
X220675500Y-120480038D01*
X220601000Y-120500000D01*
X217399000Y-120500000D01*
X217324500Y-120480038D01*
X217269962Y-120425500D01*
X217250000Y-120351000D01*
X217250000Y-113649000D01*
X217269962Y-113574500D01*
X217324500Y-113519962D01*
X217399000Y-113500000D01*
X220601000Y-113500000D01*
X220675500Y-113519962D01*
G37*
%TD.AperFunction*%
%TD*%
%TA.AperFunction,Conductor*%
%TO.N,Net-(L10-Pad2)*%
G36*
X220675500Y-127519962D02*
G01*
X220730038Y-127574500D01*
X220750000Y-127649000D01*
X220750000Y-134351000D01*
X220730038Y-134425500D01*
X220675500Y-134480038D01*
X220601000Y-134500000D01*
X217399000Y-134500000D01*
X217324500Y-134480038D01*
X217269962Y-134425500D01*
X217250000Y-134351000D01*
X217250000Y-127649000D01*
X217269962Y-127574500D01*
X217324500Y-127519962D01*
X217399000Y-127500000D01*
X220601000Y-127500000D01*
X220675500Y-127519962D01*
G37*
%TD.AperFunction*%
%TD*%
%TA.AperFunction,Conductor*%
%TO.N,Net-(L11-Pad2)*%
G36*
X220675500Y-141519962D02*
G01*
X220730038Y-141574500D01*
X220750000Y-141649000D01*
X220750000Y-148351000D01*
X220730038Y-148425500D01*
X220675500Y-148480038D01*
X220601000Y-148500000D01*
X217399000Y-148500000D01*
X217324500Y-148480038D01*
X217269962Y-148425500D01*
X217250000Y-148351000D01*
X217250000Y-141649000D01*
X217269962Y-141574500D01*
X217324500Y-141519962D01*
X217399000Y-141500000D01*
X220601000Y-141500000D01*
X220675500Y-141519962D01*
G37*
%TD.AperFunction*%
%TD*%
%TA.AperFunction,Conductor*%
%TO.N,GND*%
G36*
X192425500Y-112269962D02*
G01*
X192480038Y-112324500D01*
X192500000Y-112399000D01*
X192500000Y-114101000D01*
X192480038Y-114175500D01*
X192425500Y-114230038D01*
X192351000Y-114250000D01*
X190399000Y-114250000D01*
X190324500Y-114230038D01*
X190269962Y-114175500D01*
X190250000Y-114101000D01*
X190250000Y-112399000D01*
X190269962Y-112324500D01*
X190324500Y-112269962D01*
X190399000Y-112250000D01*
X192351000Y-112250000D01*
X192425500Y-112269962D01*
G37*
%TD.AperFunction*%
%TD*%
%TA.AperFunction,Conductor*%
%TO.N,GND*%
G36*
X200175500Y-112269962D02*
G01*
X200230038Y-112324500D01*
X200250000Y-112399000D01*
X200250000Y-114101000D01*
X200230038Y-114175500D01*
X200175500Y-114230038D01*
X200101000Y-114250000D01*
X198149000Y-114250000D01*
X198074500Y-114230038D01*
X198019962Y-114175500D01*
X198000000Y-114101000D01*
X198000000Y-112399000D01*
X198019962Y-112324500D01*
X198074500Y-112269962D01*
X198149000Y-112250000D01*
X200101000Y-112250000D01*
X200175500Y-112269962D01*
G37*
%TD.AperFunction*%
%TD*%
%TA.AperFunction,Conductor*%
%TO.N,GND*%
G36*
X199925500Y-122019962D02*
G01*
X199980038Y-122074500D01*
X200000000Y-122149000D01*
X200000000Y-123851000D01*
X199980038Y-123925500D01*
X199925500Y-123980038D01*
X199851000Y-124000000D01*
X197899000Y-124000000D01*
X197824500Y-123980038D01*
X197769962Y-123925500D01*
X197750000Y-123851000D01*
X197750000Y-122149000D01*
X197769962Y-122074500D01*
X197824500Y-122019962D01*
X197899000Y-122000000D01*
X199851000Y-122000000D01*
X199925500Y-122019962D01*
G37*
%TD.AperFunction*%
%TD*%
%TA.AperFunction,Conductor*%
%TO.N,GND*%
G36*
X193175500Y-136019962D02*
G01*
X193230038Y-136074500D01*
X193250000Y-136149000D01*
X193250000Y-137851000D01*
X193230038Y-137925500D01*
X193175500Y-137980038D01*
X193101000Y-138000000D01*
X191149000Y-138000000D01*
X191074500Y-137980038D01*
X191019962Y-137925500D01*
X191000000Y-137851000D01*
X191000000Y-136149000D01*
X191019962Y-136074500D01*
X191074500Y-136019962D01*
X191149000Y-136000000D01*
X193101000Y-136000000D01*
X193175500Y-136019962D01*
G37*
%TD.AperFunction*%
%TD*%
%TA.AperFunction,Conductor*%
%TO.N,GND*%
G36*
X199925500Y-136019962D02*
G01*
X199980038Y-136074500D01*
X200000000Y-136149000D01*
X200000000Y-137851000D01*
X199980038Y-137925500D01*
X199925500Y-137980038D01*
X199851000Y-138000000D01*
X197899000Y-138000000D01*
X197824500Y-137980038D01*
X197769962Y-137925500D01*
X197750000Y-137851000D01*
X197750000Y-136149000D01*
X197769962Y-136074500D01*
X197824500Y-136019962D01*
X197899000Y-136000000D01*
X199851000Y-136000000D01*
X199925500Y-136019962D01*
G37*
%TD.AperFunction*%
%TD*%
%TA.AperFunction,Conductor*%
%TO.N,GND*%
G36*
X192925500Y-145769962D02*
G01*
X192980038Y-145824500D01*
X193000000Y-145899000D01*
X193000000Y-147601000D01*
X192980038Y-147675500D01*
X192925500Y-147730038D01*
X192851000Y-147750000D01*
X190899000Y-147750000D01*
X190824500Y-147730038D01*
X190769962Y-147675500D01*
X190750000Y-147601000D01*
X190750000Y-145899000D01*
X190769962Y-145824500D01*
X190824500Y-145769962D01*
X190899000Y-145750000D01*
X192851000Y-145750000D01*
X192925500Y-145769962D01*
G37*
%TD.AperFunction*%
%TD*%
%TA.AperFunction,Conductor*%
%TO.N,GND*%
G36*
X200175500Y-145769962D02*
G01*
X200230038Y-145824500D01*
X200250000Y-145899000D01*
X200250000Y-147601000D01*
X200230038Y-147675500D01*
X200175500Y-147730038D01*
X200101000Y-147750000D01*
X198149000Y-147750000D01*
X198074500Y-147730038D01*
X198019962Y-147675500D01*
X198000000Y-147601000D01*
X198000000Y-145899000D01*
X198019962Y-145824500D01*
X198074500Y-145769962D01*
X198149000Y-145750000D01*
X200101000Y-145750000D01*
X200175500Y-145769962D01*
G37*
%TD.AperFunction*%
%TD*%
%TA.AperFunction,Conductor*%
%TO.N,GND*%
G36*
X161925500Y-112269962D02*
G01*
X161980038Y-112324500D01*
X162000000Y-112399000D01*
X162000000Y-114101000D01*
X161980038Y-114175500D01*
X161925500Y-114230038D01*
X161851000Y-114250000D01*
X159899000Y-114250000D01*
X159824500Y-114230038D01*
X159769962Y-114175500D01*
X159750000Y-114101000D01*
X159750000Y-112399000D01*
X159769962Y-112324500D01*
X159824500Y-112269962D01*
X159899000Y-112250000D01*
X161851000Y-112250000D01*
X161925500Y-112269962D01*
G37*
%TD.AperFunction*%
%TD*%
%TA.AperFunction,Conductor*%
%TO.N,GND*%
G36*
X169675500Y-112269962D02*
G01*
X169730038Y-112324500D01*
X169750000Y-112399000D01*
X169750000Y-114101000D01*
X169730038Y-114175500D01*
X169675500Y-114230038D01*
X169601000Y-114250000D01*
X167649000Y-114250000D01*
X167574500Y-114230038D01*
X167519962Y-114175500D01*
X167500000Y-114101000D01*
X167500000Y-112399000D01*
X167519962Y-112324500D01*
X167574500Y-112269962D01*
X167649000Y-112250000D01*
X169601000Y-112250000D01*
X169675500Y-112269962D01*
G37*
%TD.AperFunction*%
%TD*%
%TA.AperFunction,Conductor*%
%TO.N,GND*%
G36*
X161925500Y-122019962D02*
G01*
X161980038Y-122074500D01*
X162000000Y-122149000D01*
X162000000Y-123851000D01*
X161980038Y-123925500D01*
X161925500Y-123980038D01*
X161851000Y-124000000D01*
X159899000Y-124000000D01*
X159824500Y-123980038D01*
X159769962Y-123925500D01*
X159750000Y-123851000D01*
X159750000Y-122149000D01*
X159769962Y-122074500D01*
X159824500Y-122019962D01*
X159899000Y-122000000D01*
X161851000Y-122000000D01*
X161925500Y-122019962D01*
G37*
%TD.AperFunction*%
%TD*%
%TA.AperFunction,Conductor*%
%TO.N,GND*%
G36*
X161925500Y-136019962D02*
G01*
X161980038Y-136074500D01*
X162000000Y-136149000D01*
X162000000Y-137851000D01*
X161980038Y-137925500D01*
X161925500Y-137980038D01*
X161851000Y-138000000D01*
X159899000Y-138000000D01*
X159824500Y-137980038D01*
X159769962Y-137925500D01*
X159750000Y-137851000D01*
X159750000Y-136149000D01*
X159769962Y-136074500D01*
X159824500Y-136019962D01*
X159899000Y-136000000D01*
X161851000Y-136000000D01*
X161925500Y-136019962D01*
G37*
%TD.AperFunction*%
%TD*%
%TA.AperFunction,Conductor*%
%TO.N,GND*%
G36*
X168925500Y-136019962D02*
G01*
X168980038Y-136074500D01*
X169000000Y-136149000D01*
X169000000Y-137851000D01*
X168980038Y-137925500D01*
X168925500Y-137980038D01*
X168851000Y-138000000D01*
X166899000Y-138000000D01*
X166824500Y-137980038D01*
X166769962Y-137925500D01*
X166750000Y-137851000D01*
X166750000Y-136149000D01*
X166769962Y-136074500D01*
X166824500Y-136019962D01*
X166899000Y-136000000D01*
X168851000Y-136000000D01*
X168925500Y-136019962D01*
G37*
%TD.AperFunction*%
%TD*%
%TA.AperFunction,Conductor*%
%TO.N,GND*%
G36*
X161925500Y-145769962D02*
G01*
X161980038Y-145824500D01*
X162000000Y-145899000D01*
X162000000Y-147601000D01*
X161980038Y-147675500D01*
X161925500Y-147730038D01*
X161851000Y-147750000D01*
X159899000Y-147750000D01*
X159824500Y-147730038D01*
X159769962Y-147675500D01*
X159750000Y-147601000D01*
X159750000Y-145899000D01*
X159769962Y-145824500D01*
X159824500Y-145769962D01*
X159899000Y-145750000D01*
X161851000Y-145750000D01*
X161925500Y-145769962D01*
G37*
%TD.AperFunction*%
%TD*%
%TA.AperFunction,Conductor*%
%TO.N,GND*%
G36*
X169175500Y-145769962D02*
G01*
X169230038Y-145824500D01*
X169250000Y-145899000D01*
X169250000Y-147601000D01*
X169230038Y-147675500D01*
X169175500Y-147730038D01*
X169101000Y-147750000D01*
X167149000Y-147750000D01*
X167074500Y-147730038D01*
X167019962Y-147675500D01*
X167000000Y-147601000D01*
X167000000Y-145899000D01*
X167019962Y-145824500D01*
X167074500Y-145769962D01*
X167149000Y-145750000D01*
X169101000Y-145750000D01*
X169175500Y-145769962D01*
G37*
%TD.AperFunction*%
%TD*%
%TA.AperFunction,Conductor*%
%TO.N,Net-(D1-A1)*%
G36*
X165925500Y-110769962D02*
G01*
X165980038Y-110824500D01*
X166000000Y-110899000D01*
X166000000Y-115601000D01*
X165980038Y-115675500D01*
X165925500Y-115730038D01*
X165851000Y-115750000D01*
X163149000Y-115750000D01*
X163074500Y-115730038D01*
X163019962Y-115675500D01*
X163000000Y-115601000D01*
X163000000Y-110899000D01*
X163019962Y-110824500D01*
X163074500Y-110769962D01*
X163149000Y-110750000D01*
X165851000Y-110750000D01*
X165925500Y-110769962D01*
G37*
%TD.AperFunction*%
%TD*%
%TA.AperFunction,Conductor*%
%TO.N,Net-(R16-Pad2)*%
G36*
X165925500Y-116769962D02*
G01*
X165980038Y-116824500D01*
X166000000Y-116899000D01*
X166000000Y-119351000D01*
X165980038Y-119425500D01*
X165925500Y-119480038D01*
X165851000Y-119500000D01*
X163149000Y-119500000D01*
X163074500Y-119480038D01*
X163019962Y-119425500D01*
X163000000Y-119351000D01*
X163000000Y-116899000D01*
X163019962Y-116824500D01*
X163074500Y-116769962D01*
X163149000Y-116750000D01*
X165851000Y-116750000D01*
X165925500Y-116769962D01*
G37*
%TD.AperFunction*%
%TD*%
%TA.AperFunction,Conductor*%
%TO.N,Net-(C8-Pad1)*%
G36*
X165925500Y-120519962D02*
G01*
X165980038Y-120574500D01*
X166000000Y-120649000D01*
X166000000Y-125351000D01*
X165980038Y-125425500D01*
X165925500Y-125480038D01*
X165851000Y-125500000D01*
X163149000Y-125500000D01*
X163074500Y-125480038D01*
X163019962Y-125425500D01*
X163000000Y-125351000D01*
X163000000Y-120649000D01*
X163019962Y-120574500D01*
X163074500Y-120519962D01*
X163149000Y-120500000D01*
X165851000Y-120500000D01*
X165925500Y-120519962D01*
G37*
%TD.AperFunction*%
%TD*%
%TA.AperFunction,Conductor*%
%TO.N,Net-(C7-Pad1)*%
G36*
X165925500Y-126519962D02*
G01*
X165980038Y-126574500D01*
X166000000Y-126649000D01*
X166000000Y-133351000D01*
X165980038Y-133425500D01*
X165925500Y-133480038D01*
X165851000Y-133500000D01*
X163149000Y-133500000D01*
X163074500Y-133480038D01*
X163019962Y-133425500D01*
X163000000Y-133351000D01*
X163000000Y-126649000D01*
X163019962Y-126574500D01*
X163074500Y-126519962D01*
X163149000Y-126500000D01*
X165851000Y-126500000D01*
X165925500Y-126519962D01*
G37*
%TD.AperFunction*%
%TD*%
%TA.AperFunction,Conductor*%
%TO.N,Net-(C7-Pad2)*%
G36*
X165925500Y-134519962D02*
G01*
X165980038Y-134574500D01*
X166000000Y-134649000D01*
X166000000Y-139351000D01*
X165980038Y-139425500D01*
X165925500Y-139480038D01*
X165851000Y-139500000D01*
X163149000Y-139500000D01*
X163074500Y-139480038D01*
X163019962Y-139425500D01*
X163000000Y-139351000D01*
X163000000Y-134649000D01*
X163019962Y-134574500D01*
X163074500Y-134519962D01*
X163149000Y-134500000D01*
X165851000Y-134500000D01*
X165925500Y-134519962D01*
G37*
%TD.AperFunction*%
%TD*%
%TA.AperFunction,Conductor*%
%TO.N,Net-(R11-Pad1)*%
G36*
X165925500Y-140519962D02*
G01*
X165980038Y-140574500D01*
X166000000Y-140649000D01*
X166000000Y-143101000D01*
X165980038Y-143175500D01*
X165925500Y-143230038D01*
X165851000Y-143250000D01*
X163149000Y-143250000D01*
X163074500Y-143230038D01*
X163019962Y-143175500D01*
X163000000Y-143101000D01*
X163000000Y-140649000D01*
X163019962Y-140574500D01*
X163074500Y-140519962D01*
X163149000Y-140500000D01*
X165851000Y-140500000D01*
X165925500Y-140519962D01*
G37*
%TD.AperFunction*%
%TD*%
%TA.AperFunction,Conductor*%
%TO.N,/SIG1*%
G36*
X165925500Y-144269962D02*
G01*
X165980038Y-144324500D01*
X166000000Y-144399000D01*
X166000000Y-147351000D01*
X165980038Y-147425500D01*
X165925500Y-147480038D01*
X165851000Y-147500000D01*
X163149000Y-147500000D01*
X163074500Y-147480038D01*
X163019962Y-147425500D01*
X163000000Y-147351000D01*
X163000000Y-144399000D01*
X163019962Y-144324500D01*
X163074500Y-144269962D01*
X163149000Y-144250000D01*
X165851000Y-144250000D01*
X165925500Y-144269962D01*
G37*
%TD.AperFunction*%
%TD*%
%TA.AperFunction,Conductor*%
%TO.N,/SIG2_LIM*%
G36*
X196925500Y-104519962D02*
G01*
X196980038Y-104574500D01*
X197000000Y-104649000D01*
X197000000Y-109601000D01*
X196980038Y-109675500D01*
X196925500Y-109730038D01*
X196851000Y-109750000D01*
X194149000Y-109750000D01*
X194074500Y-109730038D01*
X194019962Y-109675500D01*
X194000000Y-109601000D01*
X194000000Y-104649000D01*
X194019962Y-104574500D01*
X194074500Y-104519962D01*
X194149000Y-104500000D01*
X196851000Y-104500000D01*
X196925500Y-104519962D01*
G37*
%TD.AperFunction*%
%TD*%
%TA.AperFunction,Conductor*%
%TO.N,Net-(D3-A1)*%
G36*
X196925500Y-110769962D02*
G01*
X196980038Y-110824500D01*
X197000000Y-110899000D01*
X197000000Y-115601000D01*
X196980038Y-115675500D01*
X196925500Y-115730038D01*
X196851000Y-115750000D01*
X194149000Y-115750000D01*
X194074500Y-115730038D01*
X194019962Y-115675500D01*
X194000000Y-115601000D01*
X194000000Y-110899000D01*
X194019962Y-110824500D01*
X194074500Y-110769962D01*
X194149000Y-110750000D01*
X196851000Y-110750000D01*
X196925500Y-110769962D01*
G37*
%TD.AperFunction*%
%TD*%
%TA.AperFunction,Conductor*%
%TO.N,Net-(R33-Pad2)*%
G36*
X196925500Y-116519962D02*
G01*
X196980038Y-116574500D01*
X197000000Y-116649000D01*
X197000000Y-119351000D01*
X196980038Y-119425500D01*
X196925500Y-119480038D01*
X196851000Y-119500000D01*
X194149000Y-119500000D01*
X194074500Y-119480038D01*
X194019962Y-119425500D01*
X194000000Y-119351000D01*
X194000000Y-116649000D01*
X194019962Y-116574500D01*
X194074500Y-116519962D01*
X194149000Y-116500000D01*
X196851000Y-116500000D01*
X196925500Y-116519962D01*
G37*
%TD.AperFunction*%
%TD*%
%TA.AperFunction,Conductor*%
%TO.N,Net-(C11-Pad1)*%
G36*
X196925500Y-120519962D02*
G01*
X196980038Y-120574500D01*
X197000000Y-120649000D01*
X197000000Y-125351000D01*
X196980038Y-125425500D01*
X196925500Y-125480038D01*
X196851000Y-125500000D01*
X194149000Y-125500000D01*
X194074500Y-125480038D01*
X194019962Y-125425500D01*
X194000000Y-125351000D01*
X194000000Y-120649000D01*
X194019962Y-120574500D01*
X194074500Y-120519962D01*
X194149000Y-120500000D01*
X196851000Y-120500000D01*
X196925500Y-120519962D01*
G37*
%TD.AperFunction*%
%TD*%
%TA.AperFunction,Conductor*%
%TO.N,Net-(C10-Pad1)*%
G36*
X196925500Y-126519962D02*
G01*
X196980038Y-126574500D01*
X197000000Y-126649000D01*
X197000000Y-133351000D01*
X196980038Y-133425500D01*
X196925500Y-133480038D01*
X196851000Y-133500000D01*
X194149000Y-133500000D01*
X194074500Y-133480038D01*
X194019962Y-133425500D01*
X194000000Y-133351000D01*
X194000000Y-126649000D01*
X194019962Y-126574500D01*
X194074500Y-126519962D01*
X194149000Y-126500000D01*
X196851000Y-126500000D01*
X196925500Y-126519962D01*
G37*
%TD.AperFunction*%
%TD*%
%TA.AperFunction,Conductor*%
%TO.N,Net-(C10-Pad2)*%
G36*
X196925500Y-134519962D02*
G01*
X196980038Y-134574500D01*
X197000000Y-134649000D01*
X197000000Y-139351000D01*
X196980038Y-139425500D01*
X196925500Y-139480038D01*
X196851000Y-139500000D01*
X194149000Y-139500000D01*
X194074500Y-139480038D01*
X194019962Y-139425500D01*
X194000000Y-139351000D01*
X194000000Y-134649000D01*
X194019962Y-134574500D01*
X194074500Y-134519962D01*
X194149000Y-134500000D01*
X196851000Y-134500000D01*
X196925500Y-134519962D01*
G37*
%TD.AperFunction*%
%TD*%
%TA.AperFunction,Conductor*%
%TO.N,Net-(R28-Pad1)*%
G36*
X196925500Y-140519962D02*
G01*
X196980038Y-140574500D01*
X197000000Y-140649000D01*
X197000000Y-142851000D01*
X196980038Y-142925500D01*
X196925500Y-142980038D01*
X196851000Y-143000000D01*
X194149000Y-143000000D01*
X194074500Y-142980038D01*
X194019962Y-142925500D01*
X194000000Y-142851000D01*
X194000000Y-140649000D01*
X194019962Y-140574500D01*
X194074500Y-140519962D01*
X194149000Y-140500000D01*
X196851000Y-140500000D01*
X196925500Y-140519962D01*
G37*
%TD.AperFunction*%
%TD*%
%TA.AperFunction,Conductor*%
%TO.N,/SIG2*%
G36*
X196925500Y-143769962D02*
G01*
X196980038Y-143824500D01*
X197000000Y-143899000D01*
X197000000Y-147351000D01*
X196980038Y-147425500D01*
X196925500Y-147480038D01*
X196851000Y-147500000D01*
X194149000Y-147500000D01*
X194074500Y-147480038D01*
X194019962Y-147425500D01*
X194000000Y-147351000D01*
X194000000Y-143899000D01*
X194019962Y-143824500D01*
X194074500Y-143769962D01*
X194149000Y-143750000D01*
X196851000Y-143750000D01*
X196925500Y-143769962D01*
G37*
%TD.AperFunction*%
%TD*%
M02*
