%TF.GenerationSoftware,KiCad,Pcbnew,8.0.6*%
%TF.CreationDate,2024-12-10T22:17:20+01:00*%
%TF.ProjectId,lisn-pcb,6c69736e-2d70-4636-922e-6b696361645f,rev?*%
%TF.SameCoordinates,Original*%
%TF.FileFunction,Paste,Top*%
%TF.FilePolarity,Positive*%
%FSLAX46Y46*%
G04 Gerber Fmt 4.6, Leading zero omitted, Abs format (unit mm)*
G04 Created by KiCad (PCBNEW 8.0.6) date 2024-12-10 22:17:20*
%MOMM*%
%LPD*%
G01*
G04 APERTURE LIST*
G04 Aperture macros list*
%AMRoundRect*
0 Rectangle with rounded corners*
0 $1 Rounding radius*
0 $2 $3 $4 $5 $6 $7 $8 $9 X,Y pos of 4 corners*
0 Add a 4 corners polygon primitive as box body*
4,1,4,$2,$3,$4,$5,$6,$7,$8,$9,$2,$3,0*
0 Add four circle primitives for the rounded corners*
1,1,$1+$1,$2,$3*
1,1,$1+$1,$4,$5*
1,1,$1+$1,$6,$7*
1,1,$1+$1,$8,$9*
0 Add four rect primitives between the rounded corners*
20,1,$1+$1,$2,$3,$4,$5,0*
20,1,$1+$1,$4,$5,$6,$7,0*
20,1,$1+$1,$6,$7,$8,$9,0*
20,1,$1+$1,$8,$9,$2,$3,0*%
G04 Aperture macros list end*
%ADD10RoundRect,0.250000X-0.475000X0.250000X-0.475000X-0.250000X0.475000X-0.250000X0.475000X0.250000X0*%
%ADD11R,0.600000X0.450000*%
%ADD12R,0.900000X0.800000*%
%ADD13R,1.650000X2.000000*%
%ADD14R,3.600000X2.300000*%
%ADD15RoundRect,0.249999X0.262501X0.450001X-0.262501X0.450001X-0.262501X-0.450001X0.262501X-0.450001X0*%
%ADD16RoundRect,0.249999X-0.450001X0.262501X-0.450001X-0.262501X0.450001X-0.262501X0.450001X0.262501X0*%
%ADD17RoundRect,0.249999X-0.262501X-0.450001X0.262501X-0.450001X0.262501X0.450001X-0.262501X0.450001X0*%
%ADD18RoundRect,0.249999X0.450001X-0.262501X0.450001X0.262501X-0.450001X0.262501X-0.450001X-0.262501X0*%
%ADD19RoundRect,0.249999X0.625001X-0.312501X0.625001X0.312501X-0.625001X0.312501X-0.625001X-0.312501X0*%
%ADD20R,1.650000X2.540000*%
G04 APERTURE END LIST*
D10*
%TO.C,C7*%
X164500000Y-134950000D03*
X164500000Y-133050000D03*
%TD*%
%TO.C,C8*%
X164500000Y-126950000D03*
X164500000Y-125050000D03*
%TD*%
%TO.C,C10*%
X195500000Y-134950000D03*
X195500000Y-133050000D03*
%TD*%
%TO.C,C11*%
X195500000Y-126950000D03*
X195500000Y-125050000D03*
%TD*%
D11*
%TO.C,D1*%
X167800000Y-113250000D03*
X165700000Y-113250000D03*
%TD*%
D12*
%TO.C,D2*%
X163500000Y-106750000D03*
X161500000Y-107700000D03*
X161500000Y-105800000D03*
%TD*%
D11*
%TO.C,D3*%
X192200000Y-113250000D03*
X194300000Y-113250000D03*
%TD*%
D12*
%TO.C,D4*%
X196500000Y-106750000D03*
X198500000Y-105800000D03*
X198500000Y-107700000D03*
%TD*%
D13*
%TO.C,L1*%
X159900000Y-130000000D03*
X164100000Y-130000000D03*
%TD*%
D14*
%TO.C,L2*%
X141000000Y-99600000D03*
X141000000Y-90400000D03*
%TD*%
%TO.C,L3*%
X141000000Y-113600000D03*
X141000000Y-104400000D03*
%TD*%
%TO.C,L4*%
X141000000Y-127600000D03*
X141000000Y-118400000D03*
%TD*%
%TO.C,L5*%
X141000000Y-141600000D03*
X141000000Y-132400000D03*
%TD*%
%TO.C,L6*%
X141000000Y-155600000D03*
X141000000Y-146400000D03*
%TD*%
D13*
%TO.C,L7*%
X200100000Y-130000000D03*
X195900000Y-130000000D03*
%TD*%
D15*
%TO.C,R3*%
X193587500Y-179250000D03*
X195412500Y-179250000D03*
%TD*%
D16*
%TO.C,R4*%
X195500000Y-183162500D03*
X195500000Y-181337500D03*
%TD*%
D17*
%TO.C,R5*%
X188412500Y-179250000D03*
X186587500Y-179250000D03*
%TD*%
D15*
%TO.C,R6*%
X193587500Y-185250000D03*
X195412500Y-185250000D03*
%TD*%
D16*
%TO.C,R7*%
X186250000Y-183162500D03*
X186250000Y-181337500D03*
%TD*%
D17*
%TO.C,R8*%
X188412500Y-185250000D03*
X186587500Y-185250000D03*
%TD*%
D15*
%TO.C,R9*%
X161587500Y-146750000D03*
X163412500Y-146750000D03*
%TD*%
D17*
%TO.C,R10*%
X167412500Y-146750000D03*
X165587500Y-146750000D03*
%TD*%
D16*
%TO.C,R11*%
X164500000Y-144662500D03*
X164500000Y-142837500D03*
%TD*%
%TO.C,R12*%
X164500000Y-140912500D03*
X164500000Y-139087500D03*
%TD*%
D17*
%TO.C,R13*%
X167162500Y-137000000D03*
X165337500Y-137000000D03*
%TD*%
D15*
%TO.C,R14*%
X161587500Y-137000000D03*
X163412500Y-137000000D03*
%TD*%
%TO.C,R15*%
X161587500Y-123000000D03*
X163412500Y-123000000D03*
%TD*%
D18*
%TO.C,R16*%
X164500000Y-119087500D03*
X164500000Y-120912500D03*
%TD*%
%TO.C,R17*%
X164500000Y-115337500D03*
X164500000Y-117162500D03*
%TD*%
D15*
%TO.C,R18*%
X161587500Y-113250000D03*
X163412500Y-113250000D03*
%TD*%
D16*
%TO.C,R19*%
X164500000Y-111162500D03*
X164500000Y-109337500D03*
%TD*%
D17*
%TO.C,R20*%
X167412500Y-106750000D03*
X165587500Y-106750000D03*
%TD*%
D19*
%TO.C,R21*%
X133000000Y-93537500D03*
X133000000Y-96462500D03*
%TD*%
%TO.C,R22*%
X133000000Y-107537500D03*
X133000000Y-110462500D03*
%TD*%
%TO.C,R23*%
X133000000Y-121537500D03*
X133000000Y-124462500D03*
%TD*%
%TO.C,R24*%
X133000000Y-135537500D03*
X133000000Y-138462500D03*
%TD*%
%TO.C,R25*%
X133000000Y-149537500D03*
X133000000Y-152462500D03*
%TD*%
D15*
%TO.C,R26*%
X192587500Y-146750000D03*
X194412500Y-146750000D03*
%TD*%
D17*
%TO.C,R27*%
X198412500Y-146750000D03*
X196587500Y-146750000D03*
%TD*%
D16*
%TO.C,R28*%
X195500000Y-144662500D03*
X195500000Y-142837500D03*
%TD*%
%TO.C,R29*%
X195500000Y-140912500D03*
X195500000Y-139087500D03*
%TD*%
D15*
%TO.C,R30*%
X192837500Y-137000000D03*
X194662500Y-137000000D03*
%TD*%
D17*
%TO.C,R31*%
X198162500Y-137000000D03*
X196337500Y-137000000D03*
%TD*%
%TO.C,R32*%
X198162500Y-123000000D03*
X196337500Y-123000000D03*
%TD*%
D18*
%TO.C,R33*%
X195500000Y-119087500D03*
X195500000Y-120912500D03*
%TD*%
%TO.C,R34*%
X195500000Y-115337500D03*
X195500000Y-117162500D03*
%TD*%
D17*
%TO.C,R35*%
X198412500Y-113250000D03*
X196587500Y-113250000D03*
%TD*%
D16*
%TO.C,R36*%
X195500000Y-111162500D03*
X195500000Y-109337500D03*
%TD*%
D15*
%TO.C,R37*%
X192587500Y-106750000D03*
X194412500Y-106750000D03*
%TD*%
D20*
%TO.C,TR1*%
X185210000Y-173790000D03*
X187750000Y-173790000D03*
X190290000Y-173790000D03*
X190290000Y-168710000D03*
X187750000Y-168710000D03*
X185210000Y-168710000D03*
%TD*%
D14*
%TO.C,L11*%
X219000000Y-142600000D03*
X219000000Y-133400000D03*
%TD*%
%TO.C,L9*%
X219000000Y-114600000D03*
X219000000Y-105400000D03*
%TD*%
%TO.C,L12*%
X219000000Y-156600000D03*
X219000000Y-147400000D03*
%TD*%
%TO.C,L10*%
X219000000Y-128600000D03*
X219000000Y-119400000D03*
%TD*%
%TO.C,L8*%
X219000000Y-100600000D03*
X219000000Y-91400000D03*
%TD*%
D19*
%TO.C,R42*%
X227000000Y-150537500D03*
X227000000Y-153462500D03*
%TD*%
%TO.C,R38*%
X227000000Y-94537500D03*
X227000000Y-97462500D03*
%TD*%
%TO.C,R40*%
X227000000Y-122537500D03*
X227000000Y-125462500D03*
%TD*%
%TO.C,R39*%
X227000000Y-108537500D03*
X227000000Y-111462500D03*
%TD*%
%TO.C,R41*%
X227000000Y-136537500D03*
X227000000Y-139462500D03*
%TD*%
M02*
